<?xml version="1.0" encoding="UTF-8"?>
<!DOCTYPE svg PUBLIC "-//W3C//DTD SVG 1.1//EN" "http://www.w3.org/Graphics/SVG/1.1/DTD/svg11.dtd">
<svg xmlns="http://www.w3.org/2000/svg" version="1.1" width="2101px" height="2066px" style="shape-rendering:geometricPrecision; text-rendering:geometricPrecision; image-rendering:optimizeQuality; fill-rule:evenodd; clip-rule:evenodd" xmlns:xlink="http://www.w3.org/1999/xlink">
<g><path style="opacity:0.999" fill="#b30b00" d="M 2100.5,352.5 C 2100.5,804.833 2100.5,1257.17 2100.5,1709.5C 2086.68,1841.72 2022.68,1941.22 1908.5,2008C 1859.84,2034.5 1807.84,2049.5 1752.5,2053C 1281.83,2053.67 811.167,2053.67 340.5,2053C 219.649,2041.35 125.483,1985.52 58,1885.5C 24.2153,1832.65 4.7153,1774.98 -0.5,1712.5C -0.5,1259.17 -0.5,805.833 -0.5,352.5C 11.1399,237.464 63.1399,145.631 155.5,77C 216.209,34.096 283.875,11.096 358.5,8C 589,7.83333 819.5,7.66667 1050,7.5C 1280.5,7.66667 1511,7.83333 1741.5,8C 1852.13,14.0697 1943.3,58.903 2015,142.5C 2064.89,203.633 2093.39,273.633 2100.5,352.5 Z"/></g>
<g><path style="opacity:1" fill="#fefefe" d="M 978.5,404.5 C 1045.71,400.581 1092.21,429.581 1118,491.5C 1132.55,528.117 1138.88,566.117 1137,605.5C 1129.99,709.237 1109.15,810.07 1074.5,908C 1117.87,984.379 1169.37,1054.88 1229,1119.5C 1237.53,1128.36 1246.36,1136.86 1255.5,1145C 1258.5,1145.67 1261.5,1145.67 1264.5,1145C 1349.3,1129.85 1434.64,1125.51 1520.5,1132C 1560.24,1135.15 1598.57,1144.15 1635.5,1159C 1665.23,1171.74 1688.4,1191.91 1705,1219.5C 1721.39,1257.14 1718.39,1293.14 1696,1327.5C 1678.33,1348.79 1655.83,1362.29 1628.5,1368C 1618.61,1370.31 1608.61,1371.98 1598.5,1373C 1542,1375.97 1487.34,1367.3 1434.5,1347C 1361.46,1318.5 1295.46,1278.84 1236.5,1228C 1124.66,1248.05 1014.99,1276.71 907.5,1314C 880.374,1359.76 851.874,1404.6 822,1448.5C 787.042,1499.15 747.209,1545.99 702.5,1589C 676.199,1613.62 646.866,1633.96 614.5,1650C 577.375,1667.07 538.708,1672.07 498.5,1665C 467.293,1656.42 442.127,1639.26 423,1613.5C 406.686,1581.37 406.352,1549.04 422,1516.5C 437.852,1487.68 458.352,1462.51 483.5,1441C 522.905,1408.45 565.238,1380.12 610.5,1356C 662.113,1328.58 715.113,1304.24 769.5,1283C 809.232,1216.86 843.065,1147.69 871,1075.5C 899.805,1003.09 926.638,929.921 951.5,856C 925.253,796.593 905.42,735.093 892,671.5C 881.684,621.177 879.35,570.51 885,519.5C 889.194,489.891 900.194,463.224 918,439.5C 934.729,421.724 954.896,410.058 978.5,404.5 Z"/></g>
<g><path style="opacity:1" fill="#b30d01" d="M 993.5,467.5 C 1012.26,465.966 1025.1,473.966 1032,491.5C 1037.41,505.644 1039.91,520.311 1039.5,535.5C 1036.87,598.408 1028.04,660.408 1013,721.5C 1008.46,739.119 1003.13,756.452 997,773.5C 976.42,722.513 962.087,669.847 954,615.5C 950.031,586.524 949.697,557.524 953,528.5C 954.925,514.059 959.258,500.392 966,487.5C 973.105,477.88 982.272,471.214 993.5,467.5 Z"/></g>
<g><path style="opacity:1" fill="#b30c00" d="M 1046.5,1007.5 C 1056.22,1021.26 1065.72,1035.26 1075,1049.5C 1102.88,1086.88 1131.71,1123.55 1161.5,1159.5C 1093.93,1174.91 1026.93,1192.58 960.5,1212.5C 960.167,1212.17 959.833,1211.83 959.5,1211.5C 976.06,1174.71 992.893,1138.05 1010,1101.5C 1022.46,1070.25 1034.63,1038.92 1046.5,1007.5 Z"/></g>
<g><path style="opacity:1" fill="#b30d01" d="M 1419.5,1191.5 C 1458.98,1191.63 1498.32,1194.13 1537.5,1199C 1552.66,1201.92 1566.66,1207.59 1579.5,1216C 1589.19,1223.87 1594.19,1234.04 1594.5,1246.5C 1594.9,1270.9 1583.9,1287.73 1561.5,1297C 1548.52,1302.14 1535.02,1304.31 1521,1303.5C 1515.5,1303.33 1510,1303.17 1504.5,1303C 1429.31,1284.57 1361.98,1251.07 1302.5,1202.5C 1341.4,1196.34 1380.4,1192.68 1419.5,1191.5 Z"/></g>
<g><path style="opacity:1" fill="#b30d01" d="M 734.5,1364.5 C 735.552,1364.35 736.552,1364.52 737.5,1365C 704.863,1417.64 668.363,1467.47 628,1514.5C 609.028,1536.14 588.194,1555.64 565.5,1573C 553.051,1582.06 539.384,1588.72 524.5,1593C 503.705,1597.69 489.538,1590.19 482,1570.5C 481.166,1554.84 485.166,1540.51 494,1527.5C 505.078,1512.42 517.578,1498.59 531.5,1486C 558.255,1463.79 586.588,1443.79 616.5,1426C 654.856,1403.66 694.189,1383.16 734.5,1364.5 Z"/></g>
</svg>
