<svg xmlns="http://www.w3.org/2000/svg" viewBox="0 0 280 280" fill="none" shape-rendering="auto" width="512" height="512"><desc>"Avataaars" by "Pablo Stanley", licensed under "Free for personal and commercial use". / Remix of the original. - Created with dicebear.com</desc><metadata xmlns:dc="http://purl.org/dc/elements/1.1/" xmlns:cc="http://creativecommons.org/ns#" xmlns:rdf="http://www.w3.org/1999/02/22-rdf-syntax-ns#"><rdf:RDF><cc:Work><dc:title>Avataaars</dc:title><dc:creator><cc:Agent rdf:about="https://twitter.com/pablostanley"><dc:title>Pablo Stanley</dc:title></cc:Agent></dc:creator><dc:source>https://avataaars.com/</dc:source><cc:license rdf:resource="https://avataaars.com/" /></cc:Work></rdf:RDF></metadata><mask id="viewboxMask"><rect width="280" height="280" rx="0" ry="0" x="0" y="0" fill="#fff" /></mask><g mask="url(#viewboxMask)"><g transform="translate(8)"><path d="M132 36a56 56 0 0 0-56 56v6.17A12 12 0 0 0 66 110v14a12 12 0 0 0 10.3 11.88 56.04 56.04 0 0 0 31.7 44.73v18.4h-4a72 72 0 0 0-72 72v9h200v-9a72 72 0 0 0-72-72h-4v-18.39a56.04 56.04 0 0 0 31.7-44.73A12 12 0 0 0 198 124v-14a12 12 0 0 0-10-11.83V92a56 56 0 0 0-56-56Z" fill="#fd9841"/><path d="M108 180.61v8a55.79 55.79 0 0 0 24 5.39c8.59 0 16.73-1.93 24-5.39v-8a55.79 55.79 0 0 1-24 5.39 55.79 55.79 0 0 1-24-5.39Z" fill="#000" fill-opacity=".1"/><g transform="translate(0 170)"><path d="M108 14.7c-15.52 3.68-27.1 10.83-30.77 19.44A72.02 72.02 0 0 0 32 101v9h200v-9a72.02 72.02 0 0 0-45.23-66.86C183.1 25.53 171.52 18.38 156 14.7V32a24 24 0 1 1-48 0V14.7Z" fill="#262e33"/><path d="M102 63.34a67.1 67.1 0 0 1-7-2.82V110h7V63.34ZM162 63.34a67.04 67.04 0 0 0 7-2.82V98.5a3.5 3.5 0 1 1-7 0V63.34Z" fill="#F4F4F4"/><path d="M187.62 34.49a71.79 71.79 0 0 1 10.83 5.63C197.11 55.62 167.87 68 132 68c30.93 0 56-13.43 56-30 0-1.19-.13-2.36-.38-3.51ZM76.38 34.49a16.48 16.48 0 0 0-.38 3.5c0 16.58 25.07 30 56 30-35.87 0-65.1-12.38-66.45-27.88a71.79 71.79 0 0 1 10.83-5.63Z" fill="#000" fill-opacity=".16"/></g><g transform="translate(78 134)"><path d="M40 16c0 5.37 6.16 9 14 9s14-3.63 14-9c0-1.1-.95-2-2-2-1.3 0-1.87.9-2 2-1.24 2.94-4.32 4.72-10 5-5.68-.28-8.76-2.06-10-5-.13-1.1-.7-2-2-2-1.05 0-2 .9-2 2Z" fill="#000" fill-opacity=".6"/></g><g transform="translate(104 122)"><path fill-rule="evenodd" clip-rule="evenodd" d="M16 8c0 4.42 5.37 8 12 8s12-3.58 12-8" fill="#000" fill-opacity=".16"/></g><g transform="translate(76 90)"><path d="M44 22a14 14 0 1 1-28 0 14 14 0 0 1 28 0ZM96 22a14 14 0 1 1-28 0 14 14 0 0 1 28 0Z" fill="#fff"/><path d="M36 14a6 6 0 1 1-12 0 6 6 0 0 1 12 0ZM88 14a6 6 0 1 1-12 0 6 6 0 0 1 12 0Z" fill="#000" fill-opacity=".7"/></g><g transform="translate(76 82)"><path d="M26.55 6.15c-5.8.27-15.2 4.49-14.96 10.34.01.18.3.27.43.12 2.76-2.96 22.32-5.95 29.2-4.36.64.14 1.12-.48.72-.93-3.43-3.85-10.2-5.43-15.4-5.18ZM86.45 6.15c5.8.27 15.2 4.49 14.96 10.34-.01.18-.3.27-.43.12-2.76-2.96-22.32-5.95-29.2-4.36-.64.14-1.12-.48-.72-.93 3.43-3.85 10.2-5.43 15.4-5.18Z" fill-rule="evenodd" clip-rule="evenodd" fill="#000" fill-opacity=".6"/></g><g transform="translate(-1)"><path d="M242.13 168.86c4.84 6.8 11.1 14 12.25 22.06.45 3.2.7 16.23-7.54 11.43-.27 4.36-.97 4.98.34 9.2.88 2.86 2.08 8.62-3.87 8.1 2.26 6.17 5.88 14.76 2.48 21.16-5.58 10.51-11.89-2.74-13.57-7.49.1 3.28-3.42 9.2-7.84 4.63.35 5.42 2.52 13.78-.66 18.86-6.16 9.85-12.97-2.62-13.2-7.9-1.11 3.56-.28 12.14-7.6 10.15-6.32-1.71-4.03-10.09-2.8-13.87-2.02 3.56-4.5 8.85-4.88 12.87-.34 3.45 2.94 11.57-5.55 10.05-6.52-1.17-6.76-10.9-6.65-15.18.1-3.48 3.46-11.43 1.18-14.25-12.73 5.34.6 23.3-10.95 27.3-3.84 1.32-7.04-1.18-8.32-4.64.4-1.7-.36-2.56-2.28-2.6-1.21-1.49-2.01-1.44-2.8-3.66-2.31-6.52 2.2-15.19 5.43-21-3.35 3.05-6.05 7.25-9.7 9.91-2.45 1.8-6.08 2.31-8.38-.17-2.51-2.73-.13-5.34 1.22-7.82 3-5.49 7.73-8.68 12.67-13.08 4.33-3.85 8.18-8.18 12.01-12.37 2.57-2.8 5.01-5.8 7.06-8.97A72.1 72.1 0 0 0 161 199h-4v-18.39a56.24 56.24 0 0 0 25.8-24.98c.1-3.28.28-7.11.47-11.2.54-12.09 1.19-26.4.48-35.34l-.2-2.58c-1.12-14.36-1.8-23.03-12-36.06-4.56-5.83-13.18-7.67-21.72-9.5-8.09-1.73-16.1-3.45-20.51-8.51-4.13 4.78-10.14 7.32-16.74 8.99-1.45.37-2.9.67-4.34.96-4.98 1.03-9.7 2-13.08 5.6-7.8 8.32-11.23 13.88-13.62 24.26A116.55 116.55 0 0 0 79 126.83c.13 1.88.22 3.78.32 5.69.35 7.1.71 14.32 2.9 21.1a56.23 56.23 0 0 0 26.78 27V199h-4c-1.1 0-2.2.03-3.28.07.67 3.44 1.09 6.93.81 10.34-.4 5-1.34 9.66-.85 14.7 1.04 10.52 5.41 20.5 9.02 30.52 1.73 4.82 9.36 10.49 6.23 14.46-3.13 3.98-13.81-5.47-16.2-10.05-2.44-4.66-4.65-9.4-7.18-14.03 1.48 6.46 2.77 13.1 4.8 19.41 1.36 4.27 3.43 10.72-2.28 11.94-8.95 1.91-9.3-12.58-10.18-16.9-1.47-7.19-3.1-9.98-5.5-16.97-.49 5.34.34 10.9-.81 16.2-.7 3.19-4.36 5.83-6.56 8.53-7.53 9.28-9.32-6.28-11.23-10.55-3.3 2.4-10.5 7.16-14.9 4.14-3.26-2.23-1.2-6.27-.44-9.03 1.22-4.45 1.94-8.85-1.31-12.87-3.1 3-9.92 4.75-13.88 1.88-5-3.63-.62-8.94 1.63-12.7 4.33-7.26 4.07-15.87 5.44-23.94.46-2.7 1.06-6.26.3-8.12-1.1-2.68-2.3-2.7-4.74-2.1-3.45.87-6.29 2.8-6.87 5.58-.84 4.03 3.57 5.62 3.93 9.12.77 7.55-8.7 4-11.53.62-6.95-8.36-1.26-18.23 4.21-25.56 1.87-2.5 2.4-3.22 2.02-6.48-.77-6.41-2.5-12.18-1.88-18.72.86-8.97 4.3-17.44 9.35-24.82 3.46-5.06 5.29-9.45 5.79-15.57 1.41-17.39 7.32-35.28 15.05-50.74 3.97-7.93 7.96-16.5 14.83-22.4 2.23-1.91 6.24-2.8 8.17-4.65 3.56-3.43.44-9.5 4.95-13.39 3.78-3.25 8.17-2.17 12.28-3.93 4.21-1.81 5.11-7.42 10.21-8.61 5.16-1.2 9.29 2.18 13.66 3.8 6.43 2.38 10.45 1.69 16.76-.3l.08-.03c4.2-1.33 6.95-2.2 10.89.1 2.55 1.5 4.52 5.95 7.65 6.37 3.8.52 9.14-3.04 13.35-2.9 6.45.2 9.59 4.24 12.25 8.55 1.55 2.5 4.4 3.67 6.1 6.15.62.9 1.24 1.8 2.13 2.61 6.31 5.77 14.58 10.25 21.37 15.68 12.66 10.15 15.66 23.88 16.48 37.83.66 11.18-.37 24.31 6.74 34.31 3.71 5.22 7.82 9.73 10.02 15.85.78 2.19 1.85 5.2.51 7.12-1.8 2.58-6.36 2.6-8.31.14-1.9 5.87 4.57 14.35 8.03 19.22Z" fill="#2c1b18"/><path d="M182.5 156.2c-.07 3 0 5.98.38 8.86.33 2.5.84 4.91 1.34 7.31 1.13 5.33 2.23 10.56 1.3 16.27-.75 4.53-2.73 8.87-5.36 12.94A72.09 72.09 0 0 0 161 199h-4v-18.39a56.24 56.24 0 0 0 25.5-24.4ZM101.72 199.07a125 125 0 0 0-1.23-5.48c-2.14-8.82-6.42-16.63-10.77-24.55-1.9-3.46-3.8-6.94-5.56-10.53a37.08 37.08 0 0 1-1.95-4.89 56.23 56.23 0 0 0 26.8 27V199h-4c-1.1 0-2.2.03-3.28.07Z" fill="#000" fill-opacity=".24"/><path d="M102.48 33.5c-1.67 0-12.16 4.75-8.24 6.16 2.4.86 12.5-6.15 8.24-6.15ZM171.05 47.36c-.85.38-.83.73.04 1.07.85-.38.83-.74-.04-1.07ZM195.51 65.6a26.84 26.84 0 0 0-1.37-2.76c-.89-1.27-6.24-8.4-2.47-7.5 2.08.48 4.89 6.17 6.15 8.74.78 1.57 4.28 7.12.72 6.75-.63-.07-1.95-2.92-3.03-5.23ZM204.02 110.75c-.15-1.17.25-4.76-2.46-3.42-1.8.9.67 11.72.82 13.13l.46 3.95v.03c.6 6.07 1.42 12.1 1.33 18.23-.01.76-1.2 6.66 1.55 5.4 1.46-.66.78-8.74.57-11.2-.74-8.72-1.11-17.46-2.27-26.12ZM65.36 122.25c.08 1.58-.7 9.75 1.43 9.8 1.83.04 1.24-8.4 1-11.83-.08-1.08-.08-11.14-2.1-9.91-2.32 1.4-.46 9.52-.34 11.94ZM73.8 180c0-1.43.82-14.45-1.9-11.38-1.37 1.54-.48 7.02-.35 8.88.05.7-.52 2.86.41 3.19.76.26 1.83.32 1.84-.7ZM48.12 193.16c1.93-.05.14-37.83-2.82-37.79-2.08.03 1.36 37.83 2.82 37.8ZM50.35 212.52c-2.4 0-1.95 8.46-.54 9.13 2.14 1.03 3.23-9.13.54-9.13ZM65.59 216.06c.02 1.05-1.18 1.07-1.98.74-.72-.3-.63-2.31-.58-3.49.05-1.1-.15-2.2-.31-3.29-.5-3.38-1.26-8.48.04-9.65 1.98-1.78 2.02.17 2.55 1.5 1.56 3.9.2 10.03.28 14.19ZM203.02 169.59c-2.53-.5-3.85 8.1-2.7 9.01 1.92 1.53 5.35-8.49 2.7-9.01ZM202.75 207.38c-1.13-.22-9.43 15.74-8.75 16.64 1.3 1.72 12.83-15.82 8.75-16.64ZM182.33 214.76c-1.78-.8-9.33 10.75-7.4 11.62 1.75.78 9.56-10.65 7.4-11.62ZM224.43 171.45c-2.16 0-2.06 11.82-.4 12.56 1.7.78 2.94-12.56.4-12.56ZM83.51 54.2c1.26-.65 5.45-.87 3.1 1.29-2 1.84-9.53 12.51-12.12 12.62-4.22.18 2.59-7.24 4.76-9.6 1.33-1.45 2.49-3.41 4.26-4.32ZM59.25 83.98c-2.18-.43-5.83 10.27-4.56 11.56 1.93 1.95 7.01-11.07 4.56-11.56ZM81.4 201.85c.48-2.6 2.38-.2 2.8 1.14.4 1.34 4.62 11.08 3.56 12.36-1.63 1.97-2.34-1.37-2.9-2.57-1.31-2.83-3.92-8.43-3.46-10.93ZM75.99 225.82c-2.3 0-2.03 9.8-.67 10.38 2.12.9 3.48-10.38.67-10.38ZM232.81 203.88a58.4 58.4 0 0 1 4.98 13.57c.14.6 2.06 5.56-.66 4.84-1.56-.41-1.8-4.78-2.2-6.1a32.5 32.5 0 0 0-2.58-5.56c-1.41-2.63-2.85-5.31-3.06-7.64-.33-3.9 1.84-2.42 3.52.89ZM218.09 216.95c-2.13 0-2.24 10.77-.9 11.4 1.86.88 3.62-11.4.9-11.4ZM224.25 128.65c1.58-.4-3.4-13.32-5.18-13.18-2.7.22 2.78 13.8 5.18 13.18ZM197.43 184.75c-.84.38-.83.74.05 1.07.84-.38.83-.74-.05-1.07ZM173.22 239.99c.79 0 1.12-1.23-.06-1.25-.77 0-1.18 1.25.06 1.25ZM74.68 184.63c.03-1.9-2.46-.5-2.45 1.1.03 3.21 2.4 1.75 2.45-1.1ZM68.52 136.88c-.8 0-1.13 1.24.05 1.27.78 0 1.2-1.27-.05-1.27ZM47.78 199.44c-.1 0 1.53-1.99 1.6-.05.07 1.47-1.31.06-1.6.05ZM53.6 98.06c-2.37 0-2.02 5.76-.51 6.13 2.52.61 2.86-6.13.5-6.13ZM66.21 222.33c-2.28 0-2.44 7.8-.86 8.3 2.45.75 3.24-8.3.86-8.3ZM47.46 227.93c-.88.4-.86.76.04 1.1.87-.39.86-.75-.04-1.1ZM217.46 231.28c-2.32 0-2.23 9.56-.8 10.2 1.98.9 3.48-10.2.8-10.2ZM193.95 240.16c-2.41-.48-3.68 7.4-2.55 8.3 1.85 1.45 5.02-7.8 2.55-8.3ZM173.47 247.45c-2 0-1.51 3.58-.36 4.1 2 .93 2.6-4.1.37-4.1Z" fill="#fff" fill-opacity=".3"/></g><g transform="translate(49 72)"></g><g transform="translate(62 42)"><g fill-rule="evenodd" clip-rule="evenodd"><path d="M111.71 53.49c4.67.16 8 .88 10.55 4.52 3.01.15 6.25.37 8.98 1.63 3.39 1.56 3.9 5.1-.36 5.59-1.86.2-3.72-.12-5.55-.45l-.19-.03-.33-.06c1.1 9.46-6.21 20.87-14.23 24.35C99.6 93.8 87.34 88.53 81.53 79c-2.62-4.3-4.14-10.51-4.46-15.86-.42-.2-.83-.44-1.23-.67-.38-.22-.76-.44-1.12-.61-2-.98-5.34-1.1-7.5 0-.35.17-.7.37-1.05.58-.42.25-.86.5-1.3.72C64.53 68.5 63.01 74.7 60.4 79c-5.8 9.53-18.07 14.8-29.05 10.04-8.02-3.48-15.33-14.89-14.23-24.35l-.33.06-.2.03c-1.83.33-3.7.66-5.55.45-4.27-.5-3.74-4.03-.36-5.6 2.72-1.25 5.96-1.47 8.97-1.62 2.55-3.63 5.88-4.36 10.55-4.52l23.29-.46c5.19-.14 9.72 0 11.03 4.6a18.7 18.7 0 0 1 6.35-1.25c1.86 0 4.35.45 6.5 1.28 1.3-4.64 5.83-4.77 11.03-4.63l23.3.46Zm-24.03 6.78c-2.37.03-3.5.42-3.9 2.9-.4 2.5 0 5.31.46 7.78.73 3.77 1.92 7.46 4.71 10.22a16.24 16.24 0 0 0 8.32 4.34c.11.03.54.1.96.16.63.1 1.23.18.71.13l-.1-.01h-.06a47.08 47.08 0 0 1 .16 0c3.73.4 7.72.32 10.82-2.04 3.53-2.7 5.95-6.95 7.01-11.2.63-2.48 1.93-8.42-.46-10.4-2.73-2.28-28.63-1.88-28.63-1.88Zm-33.43 0c2.37.03 3.5.42 3.9 2.9.4 2.5 0 5.32-.46 7.78-.73 3.77-1.92 7.46-4.71 10.22a16.23 16.23 0 0 1-8.32 4.35l-.96.15c-.64.1-1.26.19-.68.13-3.73.4-7.74.32-10.85-2.05-3.53-2.69-5.95-6.95-7.01-11.2-.63-2.48-1.93-8.42.46-10.4 2.73-2.28 28.63-1.87 28.63-1.87Zm-10.93 25.5Z" fill="#000" fill-opacity=".1"/><path d="M111.71 51.49c4.67.16 8 .88 10.55 4.52 3.01.15 6.25.37 8.98 1.63 3.39 1.56 3.9 5.1-.36 5.59-1.86.2-3.72-.12-5.55-.45l-.19-.03-.33-.06c1.1 9.46-6.21 20.87-14.23 24.35C99.6 91.8 87.34 86.53 81.53 77c-2.62-4.3-4.14-10.51-4.46-15.86-.42-.2-.83-.44-1.23-.67-.38-.22-.76-.44-1.12-.61-2-.98-5.34-1.1-7.5 0-.35.17-.7.37-1.05.58-.42.25-.86.5-1.3.72C64.53 66.5 63.01 72.7 60.4 77c-5.8 9.53-18.07 14.8-29.05 10.04-8.02-3.48-15.33-14.89-14.23-24.35-.11 0-.22.03-.33.05l-.2.03c-1.83.33-3.7.66-5.55.45-4.27-.5-3.74-4.03-.36-5.6 2.72-1.25 5.96-1.47 8.97-1.62 2.55-3.63 5.88-4.36 10.55-4.52l23.29-.46c5.19-.14 9.72 0 11.03 4.6a18.7 18.7 0 0 1 6.35-1.25c1.86 0 4.35.45 6.5 1.28 1.3-4.64 5.83-4.77 11.03-4.63l23.3.46Zm-24.03 6.78c-2.37.03-3.5.42-3.9 2.9-.4 2.5 0 5.31.46 7.78.73 3.77 1.92 7.46 4.71 10.22a16.24 16.24 0 0 0 8.32 4.34c.11.03.54.1.96.16.63.1 1.23.18.71.13l-.1-.01h-.06a47.08 47.08 0 0 1 .16 0c3.73.4 7.72.32 10.82-2.04 3.53-2.7 5.95-6.95 7.01-11.2.63-2.48 1.93-8.42-.46-10.4-2.73-2.28-28.63-1.88-28.63-1.88Zm-33.43 0c2.37.03 3.5.42 3.9 2.9.4 2.5 0 5.32-.46 7.78-.73 3.77-1.92 7.46-4.71 10.22a16.23 16.23 0 0 1-8.32 4.35l-.96.15c-.64.1-1.26.19-.68.13-3.73.4-7.74.32-10.85-2.05-3.53-2.69-5.95-6.95-7.01-11.2-.63-2.48-1.93-8.42.46-10.4 2.73-2.28 28.63-1.87 28.63-1.87Zm-10.93 25.5Z" fill="#e6e6e6"/></g></g></g></g></svg>