<svg xmlns="http://www.w3.org/2000/svg" viewBox="0 0 360 360" fill="none" shape-rendering="auto" width="512" height="512"><desc>"Avatar Illustration System" by "Micah Lanier", licensed under "CC BY 4.0". / Remix of the original. - Created with dicebear.com</desc><metadata xmlns:dc="http://purl.org/dc/elements/1.1/" xmlns:cc="http://creativecommons.org/ns#" xmlns:rdf="http://www.w3.org/1999/02/22-rdf-syntax-ns#"><rdf:RDF><cc:Work><dc:title>Avatar Illustration System</dc:title><dc:creator><cc:Agent rdf:about="https://dribbble.com/micahlanier"><dc:title>Micah Lanier</dc:title></cc:Agent></dc:creator><dc:source>https://www.figma.com/community/file/829741575478342595</dc:source><cc:license rdf:resource="https://creativecommons.org/licenses/by/4.0/" /></cc:Work></rdf:RDF></metadata><mask id="viewboxMask"><rect width="360" height="360" rx="0" ry="0" x="0" y="0" fill="#fff" /></mask><g mask="url(#viewboxMask)"><g transform="translate(80 23)"><path d="M154 319.5c-14.4-20-25.67-58.67-27-78L58.5 212 30 319.5h124Z" fill="#f9c9b6" stroke="#000" stroke-width="4"/><path d="M130.37 263.69c-2.1.2-4.22.31-6.37.31-30.78 0-56.05-21.57-58.76-49.1L127 241.5c.38 5.48 1.55 13.32 3.37 22.19Z" fill="#000" style="mix-blend-mode:multiply"/><path d="M181.94 151.37v.01l.1.4.14.65A75.72 75.72 0 0 1 34.93 187.7l-.2-.74L18 117.13l-.06-.29A75.72 75.72 0 0 1 165.2 81.55l.05.21.02.08.05.2.05.2v.01l16.4 68.44.08.34.08.34Z" fill="#f9c9b6" stroke="#000" stroke-width="4"/><g transform="translate(34 102.3)"><path d="M146.13 49.15A73.74 73.74 0 0 1 27.69 123.4C10.5 107.5 6.5 56 2.7 31.65c14 31.5 49.62 33.94 83.5 28 28.5-5 51.3-6 51.3-45 1.88 2.62 6.97 27.59 8.63 34.5Z" fill="#000000"/></g></g><g transform="translate(170 183)"><path d="M26 16.7c4.17-2.34 21-5.3 21 1.5 0 8.5-11.5 8-11.5 8s13.04-3.16 10.5 6c-2.5 9-9.5 5.5-11.5 4.5" stroke="#ffffff33" stroke-width="4"/></g><g transform="translate(110 102)"><path d="M27 26.5c6.17 2.5 21.1 3 31.5-15M94 4c5.17 5.33 18.1 12.8 28.5 0" stroke="#000000" stroke-width="4" stroke-linecap="round"/></g><g transform="translate(49 11)"><path d="M123.79 17.49H123.94a96.78 96.78 0 0 1 62.07 24.36c14.06 12.4 22.45 26.87 25.19 36.73-4.06 2.32-11.01 4.31-19.88 5.95-9.68 1.78-21.3 3.08-33.15 4.01-23.7 1.86-48.2 2.2-59.63 1.96l-6.07-.13 4.8 3.71c2.5 1.93 5.83 3.28 9.34 4.22 3.55.95 7.42 1.54 11.14 1.87 3.82.34 7.55.42 10.64.34-10.59 8.16-24.06 14.44-37.35 19.09a225.88 225.88 0 0 1-39.83 9.92l-2.15.32.5 2.11c3.34 14.43 9.5 39.65 13.62 56.57 1.83 7.5 3.26 13.38 3.87 15.94 1.09 4.56 4.5 11.05 8.4 17.03 3.6 5.52 7.78 10.89 11.32 14.2l-7.84 31.81H49.37c8.34-12.71 10.1-27.4 8.4-42.98-1.84-16.87-7.76-35-14-53.17l-1.85-5.36c-5.69-16.46-11.36-32.88-14.43-48.6-3.4-17.44-3.56-33.75 2.83-48.09 10.34-23.21 28.66-36.7 47-44.12 18.37-7.45 36.61-8.76 46.46-7.71Z" fill="#f4d150" stroke="#000" stroke-width="4"/></g><g transform="translate(142 119)"><g fill="#000000"><ellipse cx="16.12" cy="28.93" rx="9" ry="10" transform="rotate(-6.78 16.12 28.93)"/><ellipse cx="80.15" cy="18.92" rx="9" ry="10" transform="rotate(-6.28 80.15 18.92)"/></g><g transform="translate(-40 -8)"></g></g><g transform="rotate(-8 1149.44 -1186.92)"><path d="M16.5 7c-.33 3.83 0 12.2 4 15 5 3.5-.5 12-10.5 10" stroke="#000" stroke-width="4"/></g><g transform="translate(84 154)"><path d="M37 8.25V7.13l-.95-.59A24.91 24.91 0 0 0 23.08 3C17.44 3 12.16 4.75 8.4 8.3c-3.8 3.58-5.86 8.83-5.31 15.37.52 6.37 2.66 11.06 6.2 14.17-.29 1-.37 2.08-.24 3.21a8.98 8.98 0 0 0 4.6 7.08C16.09 49.5 19.2 50 22.52 50c5.48 0 10.29-2.95 13.95-6.89l.53-.57V8.25Z" stroke="#000" stroke-width="4"/><path d="M42.97 23.98c.07-.65.1-1.3.1-1.98 0-10.22-9.5-17-20-17C12.6 5 4.09 11.5 5.09 23.5c.56 6.68 2.95 11.07 6.65 13.72a5.7 5.7 0 0 0-.68 3.6C11.68 46.1 16.19 48 22.52 48c11.1 0 19.9-14.05 20.45-24.02Z" fill="#f9c9b6"/><path d="M27.5 13.5c-4-1.83-12.8-2.8-16 8" stroke="#000" stroke-width="4"/><path d="M17 14c2.17 1.83 6.3 7.5 5.5 15.5" stroke="#000" stroke-width="4"/><g transform="translate(3 42)"></g></g><g transform="translate(53 272)"><path d="M260.37 90.86H-12.54l.1-.2C-7.89 81.38.5 64.31 11.4 49.03c6.2-8.67 13.13-16.65 20.54-22.27 7.41-5.61 15.12-8.73 22.95-8.04 15.06 1.31 28.46 9.56 41.93 17.83l3.83 2.35c14.48 8.82 29.35 17.02 45.72 13.43 5.53-1.2 9.26-3.8 11.6-7.16 2.32-3.3 3.15-7.15 3.3-10.66.14-3.52-.4-6.85-.96-9.26a39.89 39.89 0 0 0-.75-2.78c3.63-3.64 7.47-5.77 11.43-6.73 4.3-1.03 8.89-.73 13.72.7 9.73 2.87 20.14 10.25 30.3 19.73 18.61 17.37 35.69 41.14 45.36 54.68Z" fill="#6bd9e9" stroke="#000" stroke-width="4.27"/></g></g></svg>