<svg xmlns="http://www.w3.org/2000/svg" viewBox="0 0 280 280" fill="none" shape-rendering="auto" width="512" height="512"><desc>"Avataaars" by "Pablo Stanley", licensed under "Free for personal and commercial use". / Remix of the original. - Created with dicebear.com</desc><metadata xmlns:dc="http://purl.org/dc/elements/1.1/" xmlns:cc="http://creativecommons.org/ns#" xmlns:rdf="http://www.w3.org/1999/02/22-rdf-syntax-ns#"><rdf:RDF><cc:Work><dc:title>Avataaars</dc:title><dc:creator><cc:Agent rdf:about="https://twitter.com/pablostanley"><dc:title>Pablo Stanley</dc:title></cc:Agent></dc:creator><dc:source>https://avataaars.com/</dc:source><cc:license rdf:resource="https://avataaars.com/" /></cc:Work></rdf:RDF></metadata><mask id="viewboxMask"><rect width="280" height="280" rx="0" ry="0" x="0" y="0" fill="#fff" /></mask><g mask="url(#viewboxMask)"><g transform="translate(8)"><path d="M132 36a56 56 0 0 0-56 56v6.17A12 12 0 0 0 66 110v14a12 12 0 0 0 10.3 11.88 56.04 56.04 0 0 0 31.7 44.73v18.4h-4a72 72 0 0 0-72 72v9h200v-9a72 72 0 0 0-72-72h-4v-18.39a56.04 56.04 0 0 0 31.7-44.73A12 12 0 0 0 198 124v-14a12 12 0 0 0-10-11.83V92a56 56 0 0 0-56-56Z" fill="#fd9841"/><path d="M108 180.61v8a55.79 55.79 0 0 0 24 5.39c8.59 0 16.73-1.93 24-5.39v-8a55.79 55.79 0 0 1-24 5.39 55.79 55.79 0 0 1-24-5.39Z" fill="#000" fill-opacity=".1"/><g transform="translate(0 170)"><path d="M132.5 51.83c18.5 0 33.5-9.62 33.5-21.48 0-.36-.01-.7-.04-1.06A72 72 0 0 1 232 101.04V110H32v-8.95a72 72 0 0 1 67.05-71.83c-.03.37-.05.75-.05 1.13 0 11.86 15 21.48 33.5 21.48Z" fill="#E6E6E6"/><path d="M132.5 58.76c21.89 0 39.63-12.05 39.63-26.91 0-.6-.02-1.2-.08-1.8-2-.33-4.03-.59-6.1-.76.04.35.05.7.05 1.06 0 11.86-15 21.48-33.5 21.48S99 42.2 99 30.35c0-.38.02-.76.05-1.13-2.06.14-4.08.36-6.08.67-.07.65-.1 1.3-.1 1.96 0 14.86 17.74 26.91 39.63 26.91Z" fill="#000" fill-opacity=".16"/><path d="M100.78 29.12 101 28c-2.96.05-6 1-6 1l-.42.66A72.01 72.01 0 0 0 32 101.06V110h74s-10.7-51.56-5.24-80.8l.02-.08ZM158 110s11-53 5-82c2.96.05 6 1 6 1l.42.66a72.01 72.01 0 0 1 62.58 71.4V110h-74Z" fill="#a7ffc4"/><path d="M101 28c-6 29 5 82 5 82H90L76 74l6-9-6-6 19-30s3.04-.95 6-1ZM163 28c6 29-5 82-5 82h16l14-36-6-9 6-6-19-30s-3.04-.95-6-1Z" fill-rule="evenodd" clip-rule="evenodd" fill="#000" fill-opacity=".15"/><path d="m183.42 85.77.87-2.24 6.27-4.7a4 4 0 0 1 4.85.05l6.6 5.12-18.59 1.77Z" fill="#E6E6E6"/></g><g transform="translate(78 134)"><path fill-rule="evenodd" clip-rule="evenodd" d="M34 30.4C35.14 19.9 38.24 11 54 11c15.76 0 18.92 8.96 20 19.5.08.84-.83 1.5-1.96 1.5-6.69 0-9.37-1.5-18.05-1.5-8.7 0-13.24 1.5-17.9 1.5-1.15 0-2.2-.55-2.1-1.6Z" fill="#000" fill-opacity=".7"/><path d="M67.86 15.1c-.8.57-1.8.9-2.86.9H44c-1.3 0-2.49-.5-3.38-1.31C43.56 12.38 47.8 11 54 11c6.54 0 10.9 1.54 13.86 4.1Z" fill="#fff"/><path d="M42 25a6 6 0 0 0-6 6v7a6 6 0 0 0 12 0v-2h.08a6 6 0 0 1 11.84 0H60a6 6 0 0 0 12 0v-5a6 6 0 0 0-6-6H42Z" fill="#7BB24B"/><path d="M72 31a6 6 0 0 0-6-6H42a6 6 0 0 0-6 6v6a6 6 0 0 0 12 0v-2h.08a6 6 0 0 1 11.84 0H60a6 6 0 0 0 12 0v-4Z" fill="#88C553"/></g><g transform="translate(104 122)"><path fill-rule="evenodd" clip-rule="evenodd" d="M16 8c0 4.42 5.37 8 12 8s12-3.58 12-8" fill="#000" fill-opacity=".16"/></g><g transform="translate(76 90)"><path d="M36 22a6 6 0 1 1-12 0 6 6 0 0 1 12 0ZM88 22a6 6 0 1 1-12 0 6 6 0 0 1 12 0Z" fill="#000" fill-opacity=".6"/></g><g transform="translate(76 82)"><path d="M15.61 15.18c4.24-5.76 6.88-5.48 13.31-.62l.67.5C34.41 18.73 36.7 20 40 20a2 2 0 1 0 0-4c-2.07 0-3.9-1.02-7.99-4.12l-.68-.52C27.57 8.53 25.37 7.3 22.63 7c-3.68-.4-7.05 1.48-10.24 5.83a2 2 0 1 0 3.22 2.36ZM96.39 15.18c-4.24-5.76-6.88-5.48-13.31-.62l-.67.5C77.58 18.73 75.29 20 72 20a2 2 0 1 1 0-4c2.07 0 3.9-1.02 7.99-4.12l.68-.52c3.76-2.83 5.96-4.07 8.7-4.37 3.68-.4 7.05 1.48 10.24 5.83a2 2 0 1 1-3.22 2.36Z" fill="#000" fill-opacity=".6"/></g><g transform="translate(-1)"><path d="M44.83 105.6c-.39-1.61-.77-3.24-1.13-4.92-1.95-9.23-2.95-20.22 2.89-39.67-6.9 22.99-4.25 34.15-1.76 44.58 1.23 5.2 2.43 10.2 2.37 16.4a15.44 15.44 0 0 0 0 0c.06-6.2-1.14-11.21-2.37-16.4ZM218.38 114.23c-.13.4-.16.8-.18 1.23l.18-1.23ZM218.05 116.81c-.11 1.09-.2 2.2-.23 3.35-29.04-10.76-54.94-29.62-70.32-51.55-12.1 15.62-31.96 23.04-51.63 30.4-17.38 6.5-34.62 12.94-46.2 24.94l1.09-1.5c11-14.6 28.76-21.88 46.7-29.24 18.82-7.71 37.82-15.5 49.39-31.9 15.4 24.1 41.81 44.65 71.16 55.63l.04-.12Z" fill="#000" fill-opacity=".16"/><path d="M32 280h1v-9a72 72 0 0 1 72-72h4v-18.39a56.03 56.03 0 0 1-31.8-45.74A12 12 0 0 1 67 123v-13c0-.8.08-1.57.22-2.32 9.12-5.82 19.65-10.13 30.24-14.48 18.81-7.71 37.82-15.5 49.39-31.9C158.8 80 177.4 96.6 198.87 108.2c.08.59.13 1.19.13 1.8v13a12 12 0 0 1-10.2 11.87A56.03 56.03 0 0 1 157 180.6V199h4a72 72 0 0 1 72 72v9c24.41-13.94 15.86-33.21 6.28-48.46a303.17 303.17 0 0 0-4.07-6.27c-3.48-5.25-6.45-9.74-7.2-12.97-.1-.46-.17-.9-.18-1.3-.14-4.62 3.14-7.84 7.16-11.78 6.22-6.08 14.18-13.89 14.01-31.22-.51-15.83-9.8-22.25-18.1-28-6.93-4.78-13.17-9.1-13.1-18-.01-1.82.08-3.54.25-5.19.11-.4.13-.83.15-1.25v-.1c.45-3.44 1.2-6.62 1.98-9.87 2.55-10.72 5.3-22.23-2.38-46.59-2.9-9.12-6.97-16.5-12.1-22.46-14.12-16.42-36.35-22.04-64.9-23.29-2.55-.11-5.15-.19-7.8-.23V13h-1c-43.08.77-73.16 9.54-84.8 46-7.67 24.36-4.93 35.87-2.37 46.6 1.23 5.19 2.43 10.2 2.37 16.4.03 3.75-1.06 6.7-2.85 9.2-2.46 3.43-6.23 6.04-10.24 8.8-8.3 5.75-17.6 12.17-18.1 28-.17 17.33 7.8 25.14 14.01 31.22 4.03 3.94 7.32 7.16 7.17 11.78-.08 3.26-3.4 8.27-7.38 14.27-10.54 15.9-25.7 38.8 2.2 54.73Z" fill="#f59797"/><path fill-rule="evenodd" clip-rule="evenodd" d="M50.58 122.45c22.54-29.92 73.49-29.13 96.09-61.15 15.4 24.1 41.82 44.65 71.16 55.63.3-.86.08-1.85.37-2.7 2.15-14.14 9.14-24.37-.58-55.23-11.63-36.46-41.71-45.23-84.8-45.98l-1-.02c-43.08.77-73.16 9.54-84.8 46-11.38 36.16.17 44 0 63 .04 3.75-1.05 6.7-2.85 9.2.19.4 4.16-5.76 6.41-8.75Z" fill="#fff" fill-opacity=".2"/></g><g transform="translate(49 72)"></g><g transform="translate(62 42)"></g></g></g></svg>