<svg xmlns="http://www.w3.org/2000/svg" viewBox="0 0 180 180" fill="none" shape-rendering="auto" width="512" height="512"><desc>"Bottts" by "Pablo Stanley", licensed under "Free for personal and commercial use". / Remix of the original. - Created with dicebear.com</desc><metadata xmlns:dc="http://purl.org/dc/elements/1.1/" xmlns:cc="http://creativecommons.org/ns#" xmlns:rdf="http://www.w3.org/1999/02/22-rdf-syntax-ns#"><rdf:RDF><cc:Work><dc:title>Bottts</dc:title><dc:creator><cc:Agent rdf:about="https://twitter.com/pablostanley"><dc:title>Pablo Stanley</dc:title></cc:Agent></dc:creator><dc:source>https://bottts.com/</dc:source><cc:license rdf:resource="https://bottts.com/" /></cc:Work></rdf:RDF></metadata><mask id="viewboxMask"><rect width="180" height="180" rx="0" ry="0" x="0" y="0" fill="#fff" /></mask><g mask="url(#viewboxMask)"><g transform="translate(0 66)"><mask id="sidesAntenna02-a" style="mask-type:luminance" maskUnits="userSpaceOnUse" x="10" y="9" width="160" height="51"><g fill="#fff"><rect x="10" y="28" width="36" height="32" rx="4"/><path d="M160 9h2v20h-2z"/><rect x="134" y="28" width="36" height="32" rx="4"/></g></mask><g mask="url(#sidesAntenna02-a)"><path d="M0 0h180v76H0V0Z" fill="#fb8c00"/><path d="M0 0h180v76H0V0Z" fill="#fff" fill-opacity=".3"/><path fill="#000" fill-opacity=".1" d="M0 38h180v38H0z"/></g><path fill="#fff" fill-opacity=".4" d="M160 8h2v20h-2z"/><circle cx="161" cy="5" r="4" fill="#E1E6E8"/><circle cx="162" cy="4" r="2" fill="#fff"/></g><g transform="translate(41)"><mask id="topLights-a" style="mask-type:luminance" maskUnits="userSpaceOnUse" x="10" y="22" width="80" height="30"><g fill="#fff"><path d="M10 42c0-1.1.9-2 2-2h76a2 2 0 0 1 2 2v10H10V42Z"/><path d="M18 27a5 5 0 0 1 5-5h6a5 5 0 0 1 5 5v25H18V27ZM42 27a5 5 0 0 1 5-5h6a5 5 0 0 1 5 5v25H42V27ZM66 27a5 5 0 0 1 5-5h6a5 5 0 0 1 5 5v25H66V27Z"/></g></mask><g mask="url(#topLights-a)"><path d="M0 0h100v52H0V0Z" fill="#fb8c00"/><path d="M0 0h100v52H0V0Z" fill="#fff" fill-opacity=".3"/><path fill="#fff" fill-opacity=".6" d="M0 0h100v40H0z"/><rect x="24" y="28" width="4" height="8" rx="2" fill="#fff" fill-opacity=".6"/><rect x="48" y="28" width="4" height="8" rx="2" fill="#fff" fill-opacity=".6"/><rect x="72" y="28" width="4" height="8" rx="2" fill="#fff" fill-opacity=".6"/></g></g><g transform="translate(25 44)"><mask id="faceSquare02-a" style="mask-type:luminance" maskUnits="userSpaceOnUse" x="0" y="0" width="130" height="120"><path d="M0 12A12 12 0 0 1 12 0h106a12 12 0 0 1 12 12v70a38 38 0 0 1-38 38H38A38 38 0 0 1 0 82V12Z" fill="#fff"/></mask><g mask="url(#faceSquare02-a)"><path d="M-2-2h134v124H-2V-2Z" fill="#fb8c00"/><g transform="translate(-1 -1)"><g fill="#fff" fill-opacity=".2"><path d="M-29.7 126.12c-2.62.41-9.54 1.51-10.8.4-.82-.74-.45-3.34-.18-5.2.1-.72.18-1.32.18-1.68 1.28-.06 2.24 1.38 3.19 2.8 1.4 2.08 2.75 4.1 5 1.03 1.04-1.44.8-3.25.55-5.1-.26-1.95-.52-3.93.72-5.53 1.48-1.9 3.83-2.17 6.16-2.44 2.47-.27 4.9-.55 6.23-2.77.38-.64.48-1.77.6-3 .19-2.11.4-4.5 2.15-5.06 3-.95 3.19 1.67 3.35 3.95.1 1.23.18 2.36.68 2.8 5.46 4.63 5.98-4.3 6.1-6.34v-.03c.02-.42-.05-.76-.12-1.08-.12-.57-.22-1.04.32-1.71.28-.35.67-.3 1.08-.23.4.07.84.14 1.21-.22 1.45-1.39 1.48-1.52 1.8-3.06l.04-.17.05-.2c.11-.52.18-.97.24-1.38A6.4 6.4 0 0 1 .61 88c1.15-1.44 2.3-2.87.14-4.63.6 0 5.76-1.43 6.1-1.62.5-.27 1.07-.96 1.59-1.58.45-.55.85-1.04 1.12-1.14 3.07-1.09 2.85 1.27 2.63 3.69-.14 1.45-.27 2.94.3 3.71-7.95.27-12.73 8.1-13.2 14.16-.07.93.29 1.73.62 2.48.27.6.53 1.17.54 1.76a4.1 4.1 0 0 1-.5 1.95c-.21.46-.42.91-.48 1.52-.23 2.6.81 3.55 2.17 4.8.69.64 1.45 1.34 2.17 2.37 2.4 3.4 1.15 3.93-2.49 3.32-2.09-.36-4.1-.98-6.1-1.61a38.06 38.06 0 0 0-7.53-1.8c-3.34-.34-6.44-.18-8.02 2.61-.92 1.62-1.32 6.05 1.72 6.4-.76.11-1.38.37-2.02.62-.83.34-1.69.68-2.9.76-.96-.39-1.97-.63-3.03-.73-.9.14-1.7.47-2.42.96l-.74.12ZM150.24 57.01c.47.27 1.37.22 2.35.17 1.06-.06 2.2-.12 2.96.21.4.18.8.64 1.2 1.1.37.42.74.85 1.12 1.06.86.5 1.78.67 2.7.84.71.13 1.42.26 2.1.53 2.8 1.14 4.88 3.6 3.26 6.47-.44.8-1.47 1.33-2.5 1.87-1.3.7-2.6 1.38-2.6 2.59 0 4.48 7.78-2.91 8.48-4.5.2-.44.27-.95.34-1.47.1-.72.2-1.46.64-2.03a6.98 6.98 0 0 1 1.96-1.3c.48-.25.87-.46.94-.58 1.3-2.1.75-7.26.32-11.22-.17-1.6-.32-3-.32-3.94-2.2.01-3.19 2.7-4.19 5.38-1.44 3.9-2.89 7.8-8.04 3.5-1.37-1.15-5.3-8.12-5.3-9.42 0-1.18.6-1.84 1.25-2.55.31-.34.63-.68.9-1.1l.75-1.14c.82-1.22 1.01-1.5 1.23-3.82.17-1.88.38-2.17.93-2.91.22-.3.5-.7.87-1.3.17-.3.5-.56.8-.82.7-.6 1.4-1.18.36-2.07-2.6-2.23-8.24 3.55-9.22 4.7-2.78 3.29-6.55 7.77-6.22 11.93.08.94 2.09 9.32 2.92 9.81ZM116.75 116.14c-.33.4-.66.78-.62 1.29.12 1.79.13 1.78.35 1.67.17-.08.46-.22 1.02.3.16.15.63.36 1.2.62 1.33.6 3.16 1.42 2.6 2.12-.28.36-1.04.4-1.85.42-.8.04-1.65.08-2.1.44-.35.28-.56.83-.76 1.32-.16.4-.3.78-.5.92-1.56 1.17-2.17 1.27-5.48 1.27 2.2-.62-3.45-4.51-4.02-3.27.53-1.16-.17-2.38-.85-3.54-.4-.68-.78-1.34-.89-1.96-.14-.8-.11-1.59-.09-2.36.06-1.75.1-3.41-1.76-4.88.63-.08.99-.53 1.34-.97.38-.47.75-.94 1.45-.96.87 2.37 2.9 2.54 5.03 2.71.98.08 1.99.17 2.92.46.3.1.57.17.84.24 1.05.28 1.9.5 2.52 1.58.74 1.28.18 1.95-.35 2.58ZM173.2-4.11c0-1.08-1.99-.92-3.45-.8-.4.02-.76.05-1.03.05.63.25 1 .42 1.24.54.2.1.32.15.45.2.26.06.53.06 1.34.04l1.44-.03ZM-39.75-2.61c-.2.65-.4 1.23-.03 1.36-1.09.22-.88-1.77-.77-2.9.03-.28.05-.5.05-.63 1.44 0 1.07 1.16.75 2.17ZM117.76-4.86h-3.58c.3.14.62.32.94.5 1.33.74 2.63 1.46 2.64-.5ZM172.3 4.14c.43-.08.7-.05.85-.03.09.02.14.03.16 0 .04-.03.03-.1 0-.3-.04-.3-.12-.85-.12-1.87-1.02.02-2.63 2.18-.9 2.2h.01ZM44.89 126.51h1.79c-.37-.08-1.44-.18-1.8 0ZM44.95 71.71c.63-.08 1.17-.4 1.72-.7.78-.43 1.55-.86 2.54-.62 1.02.25 1.4.9 1.67 1.4.15.27.28.5.47.57 2.72 1.03 3.16-.9 3.63-3.93.08-.54.1-1.01.12-1.44.04-1.06.08-1.87 1.04-2.9.55-.59 1.45-.9 2.34-1.2.65-.22 1.3-.45 1.8-.77a9.8 9.8 0 0 0 2.8-2.78c.3-.4.63-.85 1.04-1.33.92-1.1 2.27-2.15 3.66-3.24 3.76-2.94 7.88-6.16 5.11-11.24-2.97-5.46-4.15-.85-5.06 2.71-.34 1.37-.65 2.58-1 3-4.48 5.4-5.45.13-6.04-3.03-.1-.51-.18-.97-.26-1.32-1.26-4.95-2.98-1.38-4.4 1.56-.42.89-.82 1.72-1.17 2.24a7.8 7.8 0 0 1-1.46 1.53 5.57 5.57 0 0 0-1.6 1.9c-.24.5-.12 1.15 0 1.8.18 1.1.38 2.23-.94 2.9-1.4.75-3-.14-4.42-.92-1.08-.6-2.06-1.14-2.77-.88-2.25.8-.23 3.54 1.39 5.73.74 1 1.4 1.9 1.52 2.43.34 1.55-.27 2.9-.88 4.25-.61 1.36-1.23 2.73-.85 4.3ZM9.52 34.33H9.3h.23ZM.12 41.5c-.43 1.4-1.57 2.56-2.7 3.72-1.29 1.32-2.57 2.62-2.8 4.25-.36 2.63 1.66 3.97 3.75 5.35.66.44 1.33.89 1.93 1.38a9.29 9.29 0 0 1 3 3.61c.12.27.14.72.16 1.18.04.68.07 1.39.4 1.62 1.78 1.26 2.77.4 3.96-.64a8.62 8.62 0 0 1 1.96-1.4c2.61-1.23 2.65-1.2 4.21-.26.32.2.7.42 1.17.68l.68.41c1.44.88 2.46 1.5 4.22-1.06.7-1.02.67-2.83.63-4.7-.06-3.14-.13-6.47 3.3-6.66-1.52-.68-.85-2.7-.16-4.77.71-2.1 1.43-4.26-.22-5-4-1.81-5.17 6.75-5.84 11.65-.22 1.61-.38 2.83-.58 3.14-1.6 2.6-7.32 4.8-8.96.97-.3-.68-.08-1.41.14-2.16.22-.72.43-1.46.2-2.16-.36-1.03-.94-1.4-1.61-1.84a7.11 7.11 0 0 1-1.14-.86c-2.78-2.67-2.68-2.84-1.29-5.1l.83-1.38c.3-.53.53-1.37.8-2.28.58-2.08 1.29-4.56 3.12-4.84-1 0-2.04-.24-3.08-.5-1.97-.46-3.9-.93-5.37.44-1.03.96-.85 2.69-.68 4.33.1 1.08.2 2.13-.03 2.9ZM65.5 10.9l-.9-1.2c4.2-.06 7.5-4.53 2.91-7.06 1.87 1.02 3.27-.12 4.4-1.04 1.44-1.17 2.46-2 3.44 2.24l.27 1.07c.22.86.46 1.82.56 2.48.2 1.4.16 1.57 0 2.35l-.09.46c-.08.46-.25.78-.4 1.07-.35.63-.62 1.14.1 2.63.39.78.85 1.38 1.3 1.96.8 1.05 1.54 2 1.51 3.68 0 .47-.2.84-.4 1.25a3.46 3.46 0 0 0-.38 2.87c.23.84.63 1.63 1.04 2.43.49.95.98 1.9 1.15 2.94-1.73-.07-2.83-1.43-3.82-2.64-.35-.43-.68-.84-1.02-1.17-.76-.74-1.69-1.26-2.58-1.77-.78-.45-1.54-.88-2.16-1.43-1.72-1.56-1.78-2.36-1.9-3.84-.03-.47-.07-1-.17-1.67-.38-2.44-1.46-3.83-2.84-5.62ZM65.15 36.8c2.2-.98-.14-5.47-2.18-5.64-1.43-.13-5.26 3.09-5.5 4 1.22-.23 2.48.36 3.71.93 1.38.65 2.73 1.27 3.97.72ZM11.35 29.55c1.01.62 3.03 3.24.1 3.1-.75-.3-1.61-.5-2.46-.68-1.8-.4-3.54-.79-4.05-2.13.56-.01 1.26-.15 2.01-.29 1.57-.3 3.35-.63 4.4 0ZM33.07 51.36c-1.07.05-2.14-.24-3.1-.5-2.03-.54-3.54-.95-3.39 2.27.8.05 1.55.2 2.24.33 2.07.41 3.6.71 4.25-2.1ZM-.27 19.32c-.1.52-.18 1.02-.58 1.15a30.5 30.5 0 0 0-.56-.14c-1.69-.4-4.68-1.12-3.95-2.77.9-2 2.61-1.12 4.13-.34.69.36 1.33.7 1.85.73-.66.1-.78.76-.89 1.37ZM91.3 46.57a6.25 6.25 0 0 1 .02-3.58c-2.2.01-2.03 3.55-.02 3.58Z"/><path d="m64.5 9.39.06.24c.71-.04.23-.2-.07-.24ZM100.06 44.32c.47.67.52 1.66.58 2.66.09 1.51.17 3.07 1.68 3.62 1.52.56 2.3-.7 3.12-2.06.7-1.15 1.44-2.36 2.7-2.6.84-.18 1.7.24 2.58.66.82.4 1.66.8 2.53.74 2.5-.16 6.46-2.7 6.26-4.97a6.74 6.74 0 0 1-2.82-.24c-.74-.17-1.46-.35-2.3-.3-.86.05-1.7.3-2.52.55-.77.23-1.53.46-2.24.5-3.26.17-3.24-.2-3.16-1.36.03-.52.08-1.2-.15-2.06a12.3 12.3 0 0 1-.18-.78c-.12-.56-.16-.8-.75-1.63-.26-.37-.74-.65-1.24-.94-.6-.35-1.22-.71-1.47-1.25-.1-.21 0-.92.12-1.74.2-1.42.43-3.19-.18-3.31-.8 1.18-2.06 2.1-3.31 3.01-1.56 1.14-3.12 2.29-3.82 3.94-1.22 2.86.3 3.98 2.07 5.28.87.64 1.8 1.33 2.49 2.28ZM25.21 60.2c1.68-.4.82-4.15-.44-3.26-.8.56-.77 3.14.44 3.25ZM55.6 35.91ZM-39.74 88.2c.24-.1.46-.27.68-.43.4-.29.82-.59 1.32-.62-.02-.57-2.5-3.04-2.76-3.03l-.06.5c-.16 1.27-.56 4.26.82 3.59ZM66.99-3.94c-.29-.31-.57-.63-.92-.76-.09-.04-.1-.08-.13-.11a.26.26 0 0 0-.04-.05c4.93 0 3.18 2.35 1.87 1.62-.29-.15-.54-.43-.78-.7ZM88.29 122.17c.14.1.03.05-.16-.03-.3-.13-.8-.34-.8-.19-.01.43 2.33 1.18.96.22ZM-32.66 77.55c.3.18.58.35.9.44 1.47.41-2.51.23-2.02-.92.41.06.77.27 1.12.48Z"/></g><path d="M146.72 95.46c-.16.3-.3.57-.35.7 2.15.2 2.73 13.63-4.7 10.83-.65-.25-1-1.85-1.4-3.64-.8-3.58-1.76-7.9-5.6-3.63-1.26 1.4-.54 3.23.18 5.05.83 2.1 1.65 4.18-.53 5.6-3.24 2.1-4.6-.3-5.97-2.75-1.03-1.81-2.06-3.65-3.9-3.67 3.2 2.08 3.08 8.06 2.99 12.56-.03 1.64-.06 3.09.08 4.08a3.87 3.87 0 0 0 1.87-.63 3.42 3.42 0 0 1 1.93-.6c1.2.08 2 .62 2.82 1.17.37.25.73.5 1.13.7.31.16.68.43 1.08.71 1.2.86 2.73 1.95 4.1 1.34.42-.2.5-.97.57-1.83.1-1.05.2-2.22.97-2.6 1.55-.73 1.53.95 1.51 2.6-.01 1.05-.03 2.09.35 2.51 1.36 1.54 7.6 1.89 9.7 1.9.05-.89-.06-1.55-.14-2.06-.18-1.09-.25-1.56 1.41-2.24 2.63-1.06 7.26 1.84 8.77 3.05.32.26.4.77.48 1.23.06.4.12.76.3.88.65.41 6.09.27 6.46.2 2.22-.47 3.63-1.9 3.03-4.86-.48-2.38-2.85-3.47-5.25-4.57-2.57-1.2-5.18-2.39-5.54-5.2-.09-.66.27-1.47.61-2.27.27-.62.54-1.24.58-1.76.07-.8-.1-1.63-.27-2.45-.22-1.07-.44-2.13-.15-3.15.18-.62 3.65-4.84 4.01-4.96h.03-.03c-.6-.01-1.13-.23-1.65-.45a4.27 4.27 0 0 0-1.77-.45c-.1-.02-.42.6-.77 1.31-.46.91-1 1.99-1.28 2.07-3.05.9-2.28-1.25-1.72-2.8.16-.46.3-.86.33-1.12.1-1.1-.09-2.15-.28-3.2-.14-.73-.28-1.47-.31-2.22-.03-.56.1-1.07.23-1.58.17-.7.35-1.39.1-2.2-.05-.16-.68-.01-1.28.12-.53.13-1.03.25-1.04.12-.11-.71.15-1.83.41-2.95.65-2.73 1.3-5.48-3.47-2.33-2.43 1.61-3.42 3.92-4.43 6.27-.86 2.02-1.74 4.07-3.56 5.72.09.02-.32.8-.64 1.44ZM-35.67 117.64c1.35-.73.57-1.37-.36-2.15-.94-.77-2.03-1.67-1.31-2.92.46-.8 1.54-.97 2.65-1.15 1.14-.17 2.3-.36 2.85-1.2.8-1.2.48-2.06.17-2.9-.37-.96-.73-1.9.75-3.32 1.04-1 2.01-1.32 2.86-1.6 1.26-.41 2.23-.73 2.7-3.04.7-3.53-1.06-5.88-2.74-8.12-1.9-2.54-3.7-4.94-1.71-8.77l.32-.6c1.05-1.87 2.87-5.15-.6-6.25-2.52-.8-2.37.12-2.21 1.07.11.71.24 1.45-.78 1.49.21.58-2.85-.1-2.47-.96-.8-.1-1.2-.54-1.58-.97-.55-.63-1.08-1.22-2.78-.68-1.7.53-1.97 2.16-2.2 3.49l-.01.1c-.34 2 .56 3.74 1.43 5.41.72 1.4 1.42 2.74 1.37 4.16v.53c.01.36.02.64-.16 1.12-.56.4-1.2.56-1.92.46-1.1-.23-1.41.2-.92 1.3-.97 1.89-.6 5.1-.29 7.92.15 1.27.29 2.47.29 3.44 0 .67-.12 1.78-.25 3.09-.35 3.41-.84 8.14.25 9.54.63.81 5.57 2.1 6.66 1.5ZM-35.55 66.22c.26 1.76.6 4.05-2.25 3.3-2.03-.53-1.8-2.59-1.59-4.48.25-2.2.47-4.18-2.94-3.26V46.16l.81.08c3.02.28 10.07.94 7.68-3.74 1.94 1.71 4.07.16 5.8-1.1 1.17-.86 2.17-1.59 2.8-1.05-.15-.13-.54 1.24-.92 2.62-.35 1.23-.7 2.47-.88 2.64-.6.56-1.93.72-3.32.88-2.13.26-4.37.53-4.2 2.27.28 2.95 4.55 1.8 8.07.85 2.06-.55 3.86-1.04 4.49-.61.9.63-.22 2.95-1.22 5.04-.55 1.13-1.07 2.2-1.2 2.88-.08.4-.06.82-.04 1.24.03.86.07 1.71-.73 2.4-1.41 1.24-2.72.9-4.06.55-.8-.2-1.6-.41-2.45-.3-3.52.48-3.85 1.19-3.99 4.1-.01.33.06.8.14 1.3ZM-39.65 2.34c1.08.06 2.14.12 3.3.05.61-.03 1.08-.15 1.52-.25.72-.18 1.34-.33 2.4-.03 1.35.39 5.2 3.24 2.4 4.12 4.07-1.28 7.96-4.5 3.63-7.6a35.47 35.47 0 0 0-4.02-2.13l-.41-.2-.25-1.13h-2.81c-1.67-.26-3.81-.17-5.8-.08-.94.04-1.84.08-2.64.08 0 .75.63 1.11 1.31 1.5.94.54 1.97 1.13 1.5 2.84-.16.62-.78.93-1.4 1.23-.7.36-1.41.71-1.41 1.52.94-.01 1.81.04 2.68.09ZM75.74 89.64c-.64.2-1.28.38-1.88.08-.95-.49-1.67-2.34-2.34-4.05-.44-1.1-.84-2.15-1.28-2.72a31.61 31.61 0 0 0-2.37-2.68c-1.8-1.9-3.6-3.76-4.1-6.38-.8-4.08 1.87-7.33 4.54-10.44.2-.21.39-.49.6-.77.95-1.35 2.07-2.92 3.32-.01.64 1.5-.47 2.67-1.56 3.82-.92.96-1.82 1.91-1.65 3.02.49 3.17 3.98 2.13 6 .86.7-.44.98-1.07 1.2-1.58.42-.96.65-1.5 3.15.4 1.18.9 1.65 2.16 2.12 3.42.53 1.48 1.08 2.95 2.76 3.8 3.54 1.77 6.12-.73 5.4-3.82-.45-1.86-2.1-3.5-3.7-5.07a21.31 21.31 0 0 1-2.52-2.78c-3.18-4.59-1.47-14.68 7.06-13.6 2.76.35 4.36 2.65 5.82 4.76.57.8 1.1 1.59 1.69 2.21l.31.34c1.06 1.16 2.83 3.12 4.57 3.06 1.26-.04 1.3-.43 1.33-1 .03-.45.08-1.03.83-1.61l.41-.37c.85-.78 2.48-2.3 2.8-1.27.23.71-.72 1.46-1.56 2.12-.48.37-.92.72-1.1 1.02-1.32 2.24-.85 4.43-.35 6.75l.15.73c.25 1.2.4 2.4.55 3.63.23 1.84.45 3.7 1.01 5.45.27.84.64 1.61 1.01 2.37.63 1.29 1.24 2.55 1.27 4.03l.04 1.49c.03 1.55.08 3.21.06 4.59v.88c.04 1.3.05 1.57-1.79 2.7-1.73 1.07-3.91 1.47-6.1 1.87-1.87.34-3.75.68-5.34 1.45 2.3-1.11.35-4.84-1.18-7.78a17.3 17.3 0 0 1-1.34-2.93c-1.16-4.55-4.38-6.19-6.15-.98-.82 2.43-2.06 2.85-3.31 3.28-1.06.36-2.11.72-2.94 2.28-.4.78-.6 1.53-.74 2.11-.32 1.3-.44 1.76-2.36-.15-.2-.2-.1-.6 0-1.03.1-.54.24-1.11-.14-1.4-.7-.53-1.45-.3-2.2-.08ZM25.66 16.46c.54 1.21.52 2.44.5 3.67-.03 1.38-.06 2.76.7 4.13.61 1.1 1.61 1.93 2.6 2.76l.51.42c.41.35.96.74 1.55 1.17 2.42 1.75 5.66 4.08 4.08 6.54.34-.53 4.75-2.96 5.7-3.3 3.63-1.33 4.96-.18 6.09 3.17.14.43.21 1.07.29 1.8.23 2.2.55 5.15 3.35 4.88 1.63-.16 1.9-1.75 2.16-3.24.17-1.03.34-2 .93-2.45-2.13-.01-1.93-.62-1.66-1.43.13-.4.28-.84.18-1.29.36-.65.52-1.33.48-2.05a4.56 4.56 0 0 0-1.5-2.17c-.82-2.95.11-3.4 1.89-4.26.76-.37 1.68-.82 2.69-1.58 3.57-2.68 4.55-8.87.69-12.03-1.7-1.4-3.33-1.1-4.95-.8-1.3.25-2.58.49-3.89-.14-1.35-.65-1.3-1.27-1.23-1.99.05-.45.1-.95-.2-1.51-.91-1.73-1.92-2.59-3.4-3.85l-.66-.56C39.63-.19 36.29-2.2 31.83 0c-1.94.96-2.21 2.02-2.59 3.45-.1.4-.21.82-.37 1.28-.5 1.5-1.24 2.28-2 3.1-.47.49-.95 1-1.41 1.69-1.7 2.56-1.03 4.2.2 6.94ZM50.53 97.14c-.37-.83-.74-1.65-.51-2.4 2.43-.23 3.76 1 5.17 2.3.6.56 1.22 1.13 1.95 1.6 1.34.89 2.86 1.58 4.37 2.26 1.13.52 2.26 1.03 3.32 1.62 2.52 1.41 2.85 2.23 3.3 3.39.27.67.58 1.45 1.39 2.52.36.47 3.83 2.75 3.85 2.73-3.75-.03-2.96 1.2-1.95 2.76.63.99 1.36 2.11 1.1 3.15-.4 1.69-6.91 6.12-9.06 5.43-2.88-.92-1.54-2.37-.2-3.82.75-.82 1.5-1.64 1.5-2.36-.02-2.16-4.89-6.58-7.49-6.43-2.08.11-2.01.72-1.93 1.45.02.23.05.48 0 .73-.1.6.1 1.08.29 1.57.33.82.67 1.68-.32 3.22-1.85 2.87-5.83 6.43-9.5 6.52-.96.02-5-.91-5.56-1.6-.15-.2-.27-.34-.37-.45-.24-.28-.34-.4-.33-.5 0-.07.07-.14.18-.25.18-.2.49-.52.87-1.25.47-.88 1.24-1.7 1.98-2.47 1.9-2 3.62-3.8-.54-6.07 5.2 2.82 6.64-3.24 7.4-6.42l.1-.47c.13-.5.4-1.22.7-1.96.41-1.05.84-2.16.87-2.78.03-.65-.28-1.33-.59-2.02ZM-7.8 5.76c.62-1.68-4.45-3.7-5.84-3.85-1.4-.15-2.72.25-4.06.66-1.03.31-2.07.62-3.13.68l.5.3C-17.51 5.2-9.36 10.02-7.8 5.76ZM127.24 37.29c-2.09-1.27-10.33-4.32-11.54-1.56-.16.37-1.55-1.53-1.65-1.74-.7-1.55 0-3 .7-4.43a24 24 0 0 0 .44-.93c.2-.48.44-.93.68-1.38.58-1.11 1.15-2.2 1.22-3.49.04-.87-.33-1.75-.69-2.61-.38-.92-.75-1.82-.62-2.68.29-1.82 1.1-2.1 2.2-2.5.57-.19 1.21-.42 1.9-.9 1.67-1.13 1.8-1.67 2.09-2.77.09-.36.2-.78.38-1.3.29-.83.47-1.95.66-3.11.3-1.8.62-3.71 1.36-4.86.92-1.4 1.49-1.38 2.45-1.32a7.1 7.1 0 0 0 1.86-.08 10 10 0 0 0 1.94-.7c1.15-.51 2.38-1.05 3.28-.86.37.07.84.67 1.4 1.38.73.9 1.6 2 2.55 2.38.82.34 1.82.26 2.8.2.9-.07 1.8-.14 2.45.15 1.26.56 1.52 1.27 1.83 2.1.2.53.42 1.12.96 1.77.44.53.94.91 1.42 1.29a5.74 5.74 0 0 1 1.95 2.16c.3.65.28 1.25.26 1.8-.05.98-.08 1.78 1.85 2.37l-.19.19c-1.9 1.94-8.68 8.87-11.31 8.51-2-.27-1.93-1.88-1.85-3.4l.02-.85c0-.67.04-1.34.08-2.02.15-2.15.28-4.29-1.12-6.25-1.96-2.73-4.45-3.42-6.23-.42a5.04 5.04 0 0 0-.56 2.08c-.1.9-.2 1.8-.91 2.6-.63.72-1.36 1.01-2.1 1.32-.47.19-.96.38-1.42.7-3.4 2.22-6.44 5.64-5.11 9.76.94 2.93 2.6 2.98 4.49 3.05 1.36.04 2.84.09 4.27 1.2.73.57.94 1.13 1.16 1.68.28.72.54 1.4 1.95 2 1.2.5 2.63.45 4.05.4 1.09-.04 2.17-.08 3.15.13-.91.52-3.35 4.7-2.85 4.36-3.56 2.98-5.53.76-7.4-1.35-.73-.83-1.44-1.63-2.23-2.1Z" fill="#000" fill-opacity=".2"/><g fill="#000" fill-opacity=".1"><path d="M109.88 125c-.42-1.6-4.19-2.3-5.67-1.5-4.74 2.55 6.75 5.59 5.67 1.5ZM68.14 124.62c-.2-1.48-3.03-3.74-4.87-2.4-1.17-.44.56 2.75.85 3.04 1.53 1.56 4.41 2.3 4.02-.64ZM38.4 123.25c-.57-.2-1.24-.37-1.95-.54-2.03-.49-4.33-1.05-5.1-2.82-.4-.9.26-2.16.92-3.41.86-1.65 1.73-3.29.17-4.12-1.8-.96-2.35.26-2.9 1.48-.28.63-.56 1.26-1.02 1.59-4.52 3.19-4.05.28-3.66-2.18.16-1 .3-1.92.11-2.34-.39-.88-1.36-1.33-2.34-1.78-.76-.35-1.51-.7-1.98-1.26-.82-.95-.75-2.15-.7-3.26.09-1.65.16-3.06-2.77-3-6.28.12-3.54 4.87-1.38 8.61.86 1.5 1.63 2.83 1.7 3.64.1 1.34-.7 2.2-1.48 3.03-.65.7-1.3 1.37-1.37 2.3-.15 1.7 5.21 5.78 5.96 5.56.91.2 2.84.95 1.06 1.68h12.76c.33 0 .71.02 1.1.04 1.33.09 2.78.17 3.2-.61.21-.4.18-2.43-.34-2.61ZM128.02 117.12c-.42 2.86-.83 5.6 3.2 7.24 2.48 1.01-2.12 2.56-3.9 2.07-2.48-.69-3.08-1.86-3.46-4.18-.08-.5 0-1.05.08-1.61.22-1.52.44-3.04-2.53-3.18-2.4-.12-2.53.8-2.24 2.62 0 .05-3.92-.42-3.95-.44-.98-1.12-.4-1.58.2-2.04.33-.26.66-.52.71-.9.23-1.6.34-4.56-2.51-5.45-1.19-.37-2.27-.1-3.33.18-1.36.35-2.69.69-4.15-.4-.52-.39-.81-2.33-1.01-3.68-.12-.75-.2-1.32-.28-1.34.36-.54-1-1.2-2.34-1.85-.97-.48-1.92-.94-2.16-1.34-1.48-2.46 1.52-2.95 4.24-3.4.98-.16 1.94-.31 2.61-.55 1.05-.38 1.8-.71 2.4-.98 1.82-.81 2.1-.93 4.79.65.76.45 1.58 1.07 2.4 1.68.63.47 1.26.94 1.84 1.32-.73.15 3.81 1.89 3.44 1.7.82.4 1.34.6 1.7.73.31.1.5.17.65.3.25.18.39.5.76 1.36l.3.67.25.58c.74 1.65 1.8 4.03 2.31 5.68.46 1.45.22 3.03 0 4.57ZM-40.75 36.57c2.64-.71 4.17 1.8 5.4 3.83.82 1.38 1.52 2.52 2.33 2.26 2.14 1.9 4.2.16 5.92-1.27a9.27 9.27 0 0 1 1.78-1.3c-.11-.06 4.77 1.12 3.78 1.32 6.55 2.28 6.63-2.85 6.7-7.32.02-1.93.05-3.74.6-4.78.98-1.87 2.36-2.59 4.62-3.4.8-.29 1.67-.45 2.54-.62 1.82-.34 3.63-.68 4.66-2.13.19-.27.38-1.12.5-1.72.08-.35.14-.61.17-.62-.58-.15-4.68-1.48-5.1-1.84-.4-.33-.5-.91-.59-1.44-.08-.45-.15-.86-.38-1.07a13.4 13.4 0 0 0-1.96-1.35c-1.07-.65-2.06-1.25-2.84-2.57-.34-.56-.5-1.22-.67-1.86-.41-1.58-.81-3.11-3.5-3.17-2.17-.04-3.46 1.7-4.14 3.18-.3.67-.22 2.52-.13 4.61.22 5.1.5 11.58-4.56 5.58a5.4 5.4 0 0 1-.84-1.33c-.27-.55-.45-.93-1.8-1.7a3.27 3.27 0 0 0-1.65-.35c-.78-.02-1.52-.04-2.18-.99-.68-.98-.34-1.91-.14-2.47.23-.62.28-.77-1.49.05-4.11 1.9-4.27 6.15-4.4 9.71-.03.7-.06 1.39-.12 2.02a14.87 14.87 0 0 1-1.96 6.18c-.99 1.63-3.19 5.25-.55 4.55ZM40.36.37c.74 1.07 1.7 1.79 2.7 2.54.47.34.94.7 1.4 1.1.28.22.58.42.89.62.6.39 1.2.78 1.52 1.4.26.49.16 1.15.07 1.82-.1.76-.21 1.52.22 2.02 1.21 1.4 2.86 1.06 4.6.71 2.3-.47 4.76-.97 6.52 2.6 1.27 2.55 1.89 6.22.24 8.7-.7 1.05-2.23 1.77-3.73 2.47-1.88.89-3.7 1.75-3.83 3.19-.07.83.55 1.44 1.18 2.06.56.55 1.13 1.11 1.28 1.87.13.64-.2 1.4-.52 2.12-.6 1.42-1.16 2.69 1.84 2.61-.05-.02 0-.04.04-.05l.03-.02a4 4 0 0 0 .79-.3c.52-.22 1.16-.5 1.4-.5l.33-.34c.92-.96 3.5-3.65 4.81-3.52 2.58.23 3.58 5.36 2.2 5.62.58.1 1.03.43 1.49.76.81.59 1.67 1.21 3.43.67 1.39-.43 1.73-1.03 2.18-1.83.15-.27.31-.56.53-.86.66-.95 1.03-1.6 1.27-2 .25-.42.36-.6.5-.63.1-.03.21.03.42.14a8.2 8.2 0 0 0 2.5.77l.06-.3c.2-1.15.27-1.6.12-1.94-.1-.22-.29-.4-.6-.69-.24-.23-.57-.54-.98-1-.53-.57-1.14-1.1-1.74-1.63-.43-.38-.86-.76-1.27-1.15-.5-.5-5.13-5.41-4.17-5.65-.93-.17-1.02-2.44-1.11-4.62-.07-1.52-.13-3-.47-3.68-.35-.68-.9-1.27-1.45-1.85-.45-.47-.9-.94-1.23-1.46-.9-1.4-1.04-3.03-1.18-4.7-.14-1.59-.28-3.2-1.1-4.65-.2-.37-.55-.69-.9-1-.33-.3-.66-.59-.86-.93-.13-.23-.37-.45-.6-.65a5.04 5.04 0 0 1-.38-.36c-.7-.78-.78-1.2-.83-1.45a.7.7 0 0 0-.06-.2c-.12-.2-.48-.28-2.2-.6v-.01c-3.15-.61-12.12-.32-14.6 1.74-.35.3-.71 1.1-.99 1.7-.18.4-.32.72-.4.74.37.18.49.36.61.54l.04.05ZM168.56 110.33c-.52 2.23 1.1 4.08 3.18 5.07 1.07.51.98 1.45.87 2.57-.04.37-.08.75-.08 1.15-2.47-.01-7.4-2.84-8.96-4.83-1.63-2.09-1.13-3.1-.36-4.64.24-.46.49-.97.71-1.57.44-1.16.6-2.33.76-3.41.4-2.81.7-4.97 5.53-4.54 0 .55-.33.87-.67 1.22-.45.46-.93.95-.72 2.06.13.7.62 1.09 1.11 1.47.7.55 1.38 1.09 1.02 2.51-.14.55-.64.97-1.16 1.4-.53.46-1.08.92-1.22 1.54ZM10.62 2.44c.85.1 1.48.38 2.1.65.85.38 1.67.75 3.02.6 1.15-.11 2.03-.67 2.92-1.23.51-.33 1.03-.66 1.6-.9 1.4-.58 3.8-.84 6.43-1.12C31.97-.1 38.13-.76 38.68-4.4c-.9 0-2.25-.09-3.83-.19-4.88-.3-11.82-.74-13.43.82-.83.8-.72 1.47-.62 2.04.14.8.24 1.4-2.53 1.86-.9.15-1.56-.09-2.22-.32-1-.37-2-.72-3.86.3-.27.15-3.62 2.1-1.58 2.34ZM162.37 32.42c.58-1.44 1.49-3.74 2.94-3.83.52.44 1.18 1.41 1.77 2.28.5.74.96 1.4 1.22 1.6 1.21.88 1.55.84 2.5.73.42-.04.96-.1 1.73-.1 0 2.23-.61 3.37-1.32 4.68-.46.86-.97 1.8-1.36 3.18-.04.14-.08.41-.12.76-.2 1.7-.63 5.14-3.16 3.16-.62-.49-.64-1.98-.66-3.73-.04-3.23-.1-7.36-3.93-7.81.11-.2.24-.53.4-.92ZM102.33-.92c0 3 1.28 10.24 6.03 5.19 1.17-1.24 2.12-6.23 1.52-7.46-1.78-3.67-7.55-1.14-7.55 2.28ZM-39.18 121.74c-.62-.97-1.22-1.9-1.86-2.36-.59-.43-.5-1.74-.45-2.75.02-.27.04-.53.04-.74.82-.04 1.74.4 2.68.86 1.33.64 2.7 1.31 3.94.64 1.94-1.04.71-1.63-.52-2.22-.67-.32-1.34-.64-1.51-1.04-1.9-4.42 1.88-2.01 3.4-1.04.32.2.54.34.59.34-.46.6-.3 2.25-.12 4.1.34 3.57.76 7.94-2.85 7.48-1.33-.17-2.37-1.77-3.34-3.27ZM-39.86 76.85c.39-.54.8-1.12 1.2-1.43.27-.2.82-.06 1.3.07.37.1.7.2.83.1.23-.15.24-.4.26-.63 0-.23.02-.45.2-.58.52-.35 2.56-1.95 2.54-2.53-.04-1.38-1.35-1.7-2.67-2.02-.95-.23-1.9-.46-2.35-1.1-.12-.16-.05-.9.04-1.86.24-2.67.64-6.97-2.53-5.03-.65-.21-.04 16.33.15 16.21.3-.18.65-.68 1.03-1.2ZM140.32 121.53c.32-2.06.62-4 3.36-3.26.21.05-.09.84-.45 1.8-.55 1.43-1.23 3.23-.5 3.4-.34.06-.38.48-.41.88-.02.2-.03.39-.09.52-.7 1.7-.86 1.7-2.44 1.61-.45-.02-1.01-.05-1.73-.05.1-.05-.5-.82-.65-.94 2.3-.06 2.61-2.07 2.9-3.97ZM137.39 125.49h.02c-.02-.02-.03-.03-.02 0ZM126.5-1.19a7.7 7.7 0 0 0-.07-2.35 11 11 0 0 0-.45-.86h.36c2-.02 7.66-.07 4.51 2.37-.97.76-3.05.86-4.34.84ZM139.1-3.8s3.3 1.83 3.43 1.4c.65-2.3-1.46-2.17-3.33-2.05-.4.02-.8.05-1.14.05.42.09.76.29 1.03.6Z"/><path d="M-4.91 63.96c.48.84.96 1.69 2.06 2.19C.05 67.47.1 68.09.2 69.13c.07.62.14 1.38.82 2.52 1.65 2.79 5.81 2.6 9.11 2.44.68-.03 1.31-.06 1.88-.06.74 0 1.26.03 1.68.06 1.3.08 1.44.1 3.13-1.4.7-.6 1.37-1.32 2.06-2.05.78-.83 1.59-1.67 2.45-2.41 1.86-1.6 6.16-5.62 3.02-7.85 1.53-.35 1.06-3.02-.02-3.61.13-.05 1.46-3.25 1.39-3.42.7.04 1.36.22 2 .39 1.41.37 2.71.72 3.96-.53 1.08-1.07.73-2.62.38-4.18-.3-1.3-.6-2.62-.04-3.64 1.55-2.89 6.63-3.17 9.3-1.44 1.82 1.19 6 5 7.16 6.77 1.98 3.02 1.2 5.71-2.95 5.6-1-.02-1.73-.46-2.26-.78-.79-.48-1.13-.69-1.32 1.15-.08.8.76 1.85 1.45 2.69a11.22 11.22 0 0 1 .97 1.33c1.77 2.7 2.49 3.8 1.15 7.08-.06.17-.13.33-.2.48-.95 2.34-1.28 3.15-.37 5.83 1.05 3.08 1.34 4.39 1.09 7.64l-.06.51c-.16 1.36-.42 3.6 1.87 3.93-.35.53-1.66 4.38-1.34 4.75-1.96-.24-2.27.13-2.85.8-.37.44-.85 1-1.91 1.61-.75.42-1.69.53-2.64.63-1.33.15-2.68.3-3.54 1.33-.78.93-.8 2.45-.84 3.94a9.36 9.36 0 0 1-.37 3c-.58 1.53-1.37 3.41-3.36 4.1-4.8 1.64-4.42-2.59-4.15-5.55.04-.5.09-.98.1-1.38.16-5.04.23-10.4-.73-15.26-.98-4.94-1.8-3.05-2.9-.5-.2.5-.43 1.02-.67 1.51a7.4 7.4 0 0 1-1.79 2.16 7.71 7.71 0 0 0-1.68 1.97c-.31.59-.28 1.2-.26 1.78.04.82.08 1.6-.78 2.22-.65.48-1.41.32-2.11.17-.58-.12-1.11-.23-1.5.03-.73.51-.84 1.94-.96 3.41-.16 2.1-.33 4.3-2.35 4.05-1.98-.24-2.16-2.3-2.31-4.03-.11-1.23-.2-2.29-.9-2.42.37-.1.82-.22 1.3-.33 3.1-.74 7.47-1.78 1.43-3.86 1.85-.18 1.31-2.45 1.07-3.5l-.05-.2c-.07-.3-.42-.55-.77-.8-.36-.25-.73-.52-.79-.84-.12-.72.07-1.08.26-1.44.14-.26.28-.52.3-.91.01-.53.07-1.03.11-1.48.2-1.98.3-3-2.86-1.4-.9.45-1.1 1.07-1.27 1.56-.22.67-.36 1.09-2.16.43-.06-.2-.22-.3-.48-.34-.27.08-.7-.22-1.21-.58-.78-.54-1.74-1.2-2.58-.85-1.66.7-1.03 1.9-.47 2.98.21.4.42.8.49 1.13.55 2.58.2 2.75-.6 3.13-.58.28-1.38.66-2.24 2.1-.71 1.2-.26 2.4.17 3.5.57 1.48 1.09 2.83-1.21 3.87-5.86 2.66-6.78-3.52-6.04-6.46l.08-.34c.8-3.2 1.4-5.58-.11-8.87-1.04-2.26-2.75-3.59-4.58-5.02a31.58 31.58 0 0 1-2.8-2.36c-3.43-3.38-3.7-7.4.22-10.64 3.14-2.6 7.36-3.36 10.65-.65.54.45.88 1.04 1.22 1.63ZM86.86 16.93c.45.21 1.04 1 1.64 1.81.56.75 1.14 1.52 1.63 1.89.6.45 1.26.79 1.9 1.12 1.04.56 2.06 1.1 2.8 2.08 3.04 4.1.8 6.84-1.88 10.1l-.1.11c-2.9 3.54-4.47 14.02-1.33 17.42.5.54 1.28.95 2.1 1.38.9.47 1.85.97 2.5 1.68.39.42.63.92.88 1.42.23.46.46.93.8 1.33 1.22 1.44 4.02 4.31 6.14 4.43.44-2.45 1.27-3.31 3.72-4.66 3.3 1.12 4.88-6.03 4.72-6.91-.32-1.77-1.37-4.19-3.9-4.25-2.3-.06-2.76 1.15-3.21 2.36-.3.78-.58 1.56-1.37 2-2.46 1.36-2.85.26-3.46-1.48a29 29 0 0 0-.32-.88c-.24-.6-.33-1.11-.42-1.58a3.98 3.98 0 0 0-1.1-2.37 5.33 5.33 0 0 0-1.8-1.06c-.85-.36-1.7-.73-2.14-1.46-2.07-3.5 1.1-6 3.99-8.28 1.3-1.02 2.53-2 3.22-3-.17-.06 6.45-2 7.03-2.1.38-.07.87-.13 1.39-.19 2.34-.27 5.48-.63 3.8-2.41-.62-.68-1.64-.9-2.7-1.11-1.22-.26-2.5-.53-3.3-1.53-1.03-1.27-.77-2.71-.5-4.13.2-1.14.4-2.26-.08-3.27-1.42.03-2.77.55-4.1 1.06-2.34.9-4.62 1.79-7.15-.15-1.72-1.33-1.57-3.06-1.41-4.78.12-1.39.25-2.77-.6-3.93-.39-.54-.53-.8-.6-.92-.02-.06-.03-.08-.05-.09l-.03.02c-.08.05-.3.2-1.34-.01-3.03-.65-3.15-.21-3.45.88-.1.35-.2.78-.44 1.25-.47.93-2.52 7.7-1.48 8.2ZM10.6 33.44c-3.42.87-5 .75-9.52.13-.56-.05-1.1-.07-1.66-.05.64-.48 4.78-5.6 4.68-5.67.13.08.02.67-.1 1.32-.12.74-.26 1.56-.1 1.77.7.84 2.58 1.16 4.26 1.46.95.16 1.83.32 2.4.55-.2.1-.18.27.04.5ZM79.33 20.15c.03 0 .16.08.35.19.61.35 1.83 1.05 1.84.89.04-.62.63-1.3 1.19-1.97 1.04-1.22 2.02-2.37-.54-2.88-2.15-.42-4.12 2.14-4.37 3.53.54-.03 1.05.05 1.53.24ZM118.27 70.9a24.6 24.6 0 0 0-2.77-2.67c-2.59-1.07 2.46-6.6 4.3-8.62l.51-.57c.58-.67 1.67-2.92 2.66-4.95.92-1.92 1.76-3.64 1.98-3.66.62-.06 2.05 9.72 2.81 14.88.22 1.49.38 2.6.45 2.97l.1.51c.44 2.3.93 4.86-.84 6.78-1.56 1.69-5.46 3.05-7.56 1.36-1.1-.88-1.12-2.12-1.13-3.35a5.16 5.16 0 0 0-.5-2.67ZM159.65 16.33c.22.93 1.78 3.29 2.94 3.32.06-.43.78-1.77 1.51-3.12.8-1.5 1.61-3 1.5-3.22-1.15-2.31-6.57.33-5.95 3.02ZM79.07 25.5c.63.42 1.3.84 1.67 1.38.72 1.03-.08 3-1.72 2.95.13-.54-.15-1.39-.43-2.25-.34-1.03-.68-2.08-.33-2.61l.8.54ZM136.95 74.33c.54 1.43 1.05 2.8 1.32 3.25.4.66.87 1.3 1.34 1.96.74 1.03 1.5 2.06 1.98 3.16 1.2 2.68.71 4.72.2 6.84-.36 1.54-.73 3.11-.47 5 .68 4.82 4.12 2.8 5.67-.43-1.37-.18 1.95-6.67 3.6-8.01.3-.26.76-.7 1.3-1.23 2.12-2.07 5.63-5.5 7.4-4.22 1.62 1.17.7 2.52-.2 3.86-.63.94-1.26 1.87-1 2.72.04.18.62.01 1.06-.12.3-.09.53-.16.55-.11.01.03.11.05.26.07.32.06.86.15 1 .62.1.32-.07.7-.23 1.06-.14.3-.27.6-.22.84.36 1.7.13 3.27-.1 4.9-.13.93-.27 1.88-.3 2.89-.2 5.7 1.44 2.6 2.6.4.44-.83.8-1.53 1-1.6-2.04-1.62-1.4-7.4 1.75-8.04 1.3-.26 2.33.32 3.29.87 1.22.7 2.33 1.33 3.77.05.56-.49.1-7.65-.2-7.9-.47-.4-1.5-.53-2.45-.66a9.14 9.14 0 0 1-1.5-.27c-1.31-.44-6.6-2.23-2.77-3 .9-.18 1.86.33 2.81.84 1.09.57 2.17 1.14 3.17.73 1.94-.8 1.43-8.67 1.11-13.53-.1-1.35-.17-2.47-.17-3.14-2 .05-3.64 2.87-4.19 4.25-1.56 3.92-2.2 5.05-7.02 7.43a57.6 57.6 0 0 0-3.55 1.73l-.02.01c-.3.18-.76.17-1.2.16-.47 0-.9-.02-1.1.2-.25.28-.1.92.08 1.63.24.96.5 2.06-.09 2.7-2.03 2.16-3.39.77-4.94-.83l-.62-.62-.8-.76c-1.02-.95-2.35-2.2-2.83-3.06-1.66-2.96.06-3.47 2.02-4.05 1.55-.46 3.26-.96 3.52-2.78.18-1.32-1.54-2.18-3.3-3.05-.94-.48-1.9-.96-2.56-1.51-.45-.38-.77-.85-1.09-1.32-.56-.81-1.12-1.63-2.37-1.98-4.87-1.36-11.02 8.46-7.25 10.07.28.12 1.02 2.09 1.72 3.96ZM58.31 125.53c-.3-3.3-5.79-.12-7.35.79l-.2.1h7.62l-.07-.9ZM117.73 125.89c.52-.17 2.31-2.67 2.55-3.2a2.8 2.8 0 0 0-.15.73c-.12 1-.3 2.42-2.4 2.47Z"/></g></g></g></g><g transform="translate(52 124)"><g fill="#000" fill-opacity=".6"><rect x="12" y="12" width="4" height="8" rx="2"/><rect x="36" y="12" width="4" height="8" rx="2"/><rect x="24" y="12" width="4" height="8" rx="2"/><rect x="48" y="12" width="4" height="8" rx="2"/><rect x="60" y="12" width="4" height="8" rx="2"/></g></g><g transform="translate(38 76)"><circle cx="28" cy="24" r="18" fill="#000" fill-opacity=".2"/><circle cx="74" cy="24" r="18" fill="#000" fill-opacity=".2"/><circle cx="28" cy="24" r="15" fill="#F1EEDA"/><circle cx="74" cy="24" r="15" fill="#F1EEDA"/><rect x="26" y="15" width="10" height="10" rx="2" fill="#000" fill-opacity=".8"/><rect x="74" y="15" width="10" height="10" rx="2" fill="#000" fill-opacity=".8"/></g></g></svg>