<svg id="svg" version="1.1" xmlns="http://www.w3.org/2000/svg" xmlns:xlink="http://www.w3.org/1999/xlink" width="400" height="368.05555555555554" viewBox="0, 0, 400,368.05555555555554"><g id="svgg"><path id="path0" d="M246.161 47.692 C 245.592 47.866,187.554 107.691,165.509 130.828 L 163.773 132.651 148.843 124.259 C 132.422 115.031,133.018 115.295,130.903 116.316 C 128.926 117.271,127.598 118.990,124.374 124.769 C 120.433 131.831,119.936 133.340,120.690 135.933 C 121.170 137.587,120.107 136.886,133.654 144.481 C 140.162 148.130,145.486 151.219,145.486 151.346 C 145.486 151.473,141.215 156.010,135.995 161.429 C 124.967 172.878,125.167 172.569,126.630 175.889 C 128.398 179.902,138.246 188.688,141.583 189.228 C 143.779 189.585,143.347 189.957,156.269 176.563 C 162.809 169.783,168.332 164.236,168.541 164.236 C 169.022 164.236,228.487 197.510,228.412 197.737 C 228.381 197.829,209.815 217.181,187.153 240.740 C 143.614 286.004,145.190 284.284,145.476 286.228 C 145.862 288.841,146.861 290.160,152.569 295.595 C 158.180 300.937,160.269 302.114,162.884 301.410 C 163.935 301.127,161.166 303.973,223.932 238.657 C 238.675 223.316,250.861 210.674,251.014 210.565 C 251.194 210.435,254.728 212.296,261.120 215.885 C 274.625 223.470,274.339 223.520,280.487 212.500 C 283.930 206.329,284.317 205.389,284.351 203.125 C 284.395 200.172,284.484 200.255,276.415 195.718 C 272.566 193.553,269.435 191.678,269.456 191.551 C 269.477 191.424,272.426 188.266,276.009 184.534 C 283.841 176.375,283.847 176.364,282.284 172.952 C 280.424 168.889,270.654 160.324,267.321 159.834 C 265.254 159.530,265.302 159.490,255.663 169.516 C 250.745 174.633,246.651 178.842,246.566 178.869 C 246.299 178.955,186.690 145.464,186.690 145.228 C 186.690 145.104,203.916 127.143,224.970 105.314 C 264.682 64.139,264.049 64.830,263.799 63.007 C 263.427 60.294,262.448 58.977,256.784 53.576 C 251.017 48.076,248.842 46.871,246.161 47.692 M171.332 207.687 L 169.457 209.838 170.381 210.658 L 171.305 211.479 169.789 211.738 C 164.552 212.635,161.920 218.387,164.427 223.458 C 168.859 232.427,181.555 231.905,182.164 222.729 L 182.292 220.805 183.953 222.382 C 186.464 224.763,186.658 226.334,184.714 228.542 C 183.681 229.716,182.562 230.203,181.281 230.037 C 180.514 229.938,177.318 232.992,176.904 234.219 C 176.722 234.760,179.275 235.532,181.245 235.532 C 189.250 235.532,194.392 225.555,189.478 219.558 C 188.781 218.708,173.876 205.774,173.396 205.604 C 173.292 205.567,172.363 206.504,171.332 207.687 M175.347 215.255 C 177.884 216.432,179.283 219.238,178.391 221.362 C 176.947 224.797,172.425 224.739,170.086 221.256 C 167.784 217.828,171.574 213.504,175.347 215.255 M156.013 225.585 C 154.407 227.452,154.151 227.857,154.422 228.105 C 154.600 228.268,156.594 229.983,158.853 231.917 C 164.347 236.622,164.938 238.093,162.330 240.572 C 160.308 242.493,159.206 242.078,153.636 237.305 C 151.445 235.428,149.540 233.823,149.401 233.738 C 149.148 233.583,145.602 237.507,145.602 237.942 C 145.602 238.191,153.876 245.320,155.242 246.248 C 160.118 249.562,166.465 246.458,166.849 240.572 L 166.958 238.898 167.872 239.621 C 168.924 240.454,168.542 240.676,171.065 237.768 C 172.856 235.703,173.547 236.682,165.394 229.728 C 161.701 226.579,158.511 223.858,158.304 223.681 C 157.970 223.396,157.713 223.609,156.013 225.585 M136.343 238.810 C 135.642 239.643,134.834 240.618,134.547 240.976 L 134.025 241.627 143.629 249.865 C 148.912 254.395,153.326 258.102,153.439 258.102 C 153.970 258.102,157.220 253.920,156.946 253.590 C 156.441 252.981,137.999 237.268,137.806 237.282 C 137.701 237.290,137.043 237.977,136.343 238.810 M132.484 248.125 C 131.517 248.373,130.009 249.169,129.024 249.950 C 128.023 250.744,121.223 258.687,121.320 258.949 C 121.427 259.239,139.325 274.537,139.557 274.537 C 139.907 274.537,143.323 270.384,143.172 270.140 C 143.093 270.012,141.628 268.706,139.917 267.238 L 136.807 264.570 138.544 262.483 C 141.447 258.995,142.271 256.676,141.575 253.957 C 140.551 249.962,136.201 247.171,132.484 248.125 M135.331 254.715 C 136.927 256.311,136.793 257.273,134.606 259.918 C 133.165 261.662,133.395 261.689,130.845 259.474 C 128.284 257.251,128.327 257.619,130.382 255.463 C 132.559 253.179,133.633 253.017,135.331 254.715 " stroke="none" fill="#fbfbfb" fill-rule="evenodd"></path><path id="path1" d="M197.685 10.559 C 95.001 14.018,17.850 102.590,28.947 204.277 C 37.563 283.223,99.009 346.676,177.662 357.848 C 293.941 374.365,392.815 274.099,374.861 157.870 C 361.561 71.768,284.430 7.638,197.685 10.559 M250.924 48.397 C 252.655 49.320,261.039 57.171,262.371 59.116 C 263.899 61.349,264.349 63.963,263.451 65.394 C 263.105 65.945,229.073 101.336,191.664 140.046 L 186.631 145.255 216.379 161.921 C 232.740 171.088,246.243 178.615,246.385 178.647 C 246.527 178.680,250.602 174.581,255.440 169.540 C 265.147 159.424,264.915 159.617,267.135 159.776 C 269.684 159.959,270.928 160.792,276.296 165.909 C 282.060 171.405,283.113 172.935,283.094 175.781 C 283.082 177.416,283.275 177.171,276.113 184.637 C 272.587 188.312,269.708 191.424,269.715 191.551 C 269.722 191.678,272.815 193.512,276.588 195.625 C 284.529 200.073,284.497 200.043,284.483 203.116 C 284.464 207.315,277.334 219.566,274.039 221.061 C 271.851 222.054,271.963 222.098,261.057 215.999 L 251.171 210.470 250.076 211.659 C 249.474 212.312,246.521 215.399,243.514 218.519 C 240.506 221.638,228.730 233.881,217.344 245.725 C 205.959 257.569,189.319 274.877,180.366 284.187 C 163.023 302.222,163.544 301.749,161.248 301.565 C 158.810 301.369,157.519 300.501,152.326 295.567 C 145.898 289.459,144.199 286.476,145.668 283.878 C 145.885 283.494,195.089 232.179,210.557 216.205 C 218.157 208.356,228.240 197.793,228.231 197.688 C 228.222 197.565,169.058 164.439,168.618 164.309 C 168.392 164.243,164.006 168.711,149.676 183.605 C 143.458 190.068,142.665 190.420,138.873 188.399 C 135.653 186.682,127.147 177.941,126.265 175.441 C 125.170 172.336,124.846 172.811,135.885 161.337 C 141.038 155.981,145.255 151.497,145.255 151.374 C 145.255 151.250,139.890 148.148,133.333 144.480 C 119.666 136.834,120.363 137.390,120.378 134.152 C 120.388 131.877,120.786 130.903,124.195 124.785 C 127.462 118.925,128.707 117.284,130.601 116.340 C 133.042 115.124,132.156 114.747,148.838 124.086 L 163.745 132.431 165.063 131.088 C 165.788 130.350,176.471 119.272,188.804 106.472 C 238.808 54.570,245.214 47.953,245.687 47.710 C 246.688 47.195,249.316 47.540,250.924 48.397 M181.341 212.117 C 189.670 219.262,190.512 220.149,191.327 222.643 C 193.691 229.869,184.604 238.234,177.857 235.042 C 176.353 234.331,176.303 234.553,178.560 231.930 C 180.322 229.882,180.412 229.815,181.187 229.941 C 182.336 230.127,183.648 229.522,184.711 228.314 C 186.625 226.140,186.146 224.165,183.127 221.781 L 182.292 221.121 182.279 222.771 C 182.213 231.516,169.650 232.581,164.645 224.266 C 161.488 219.021,164.249 212.323,169.859 211.621 L 171.181 211.456 170.313 210.793 C 169.835 210.428,169.444 210.028,169.444 209.903 C 169.444 209.663,173.104 205.324,173.306 205.324 C 173.370 205.324,176.986 208.381,181.341 212.117 M171.623 215.471 C 168.508 217.429,168.964 221.482,172.499 223.243 C 177.546 225.758,180.898 219.154,176.210 215.929 C 174.807 214.963,172.756 214.758,171.623 215.471 M166.551 230.534 C 169.861 233.357,172.600 235.754,172.638 235.862 C 172.675 235.970,171.961 236.929,171.051 237.994 C 168.607 240.855,168.845 240.674,168.234 240.138 C 167.034 239.086,166.986 239.078,167.086 239.935 C 167.689 245.099,161.330 249.363,156.459 247.062 C 154.653 246.208,145.275 238.313,145.469 237.809 C 145.865 236.776,149.174 233.359,149.517 233.629 C 149.715 233.784,151.690 235.460,153.906 237.352 C 159.410 242.050,160.416 242.373,162.543 240.125 C 164.724 237.819,164.171 236.668,158.577 231.879 C 156.342 229.966,154.370 228.269,154.195 228.109 C 153.929 227.866,154.214 227.427,155.898 225.482 L 157.921 223.146 159.226 224.274 C 159.945 224.895,163.241 227.712,166.551 230.534 M147.690 245.375 C 153.035 249.960,157.407 253.768,157.407 253.835 C 157.407 254.034,153.651 258.333,153.477 258.333 C 153.333 258.333,135.130 242.836,134.217 241.935 C 133.872 241.595,137.267 237.037,137.866 237.037 C 137.925 237.037,142.346 240.789,147.690 245.375 M136.574 248.284 C 139.885 249.329,142.074 252.590,141.845 256.134 C 141.684 258.612,140.900 260.007,137.337 264.154 C 137.043 264.495,137.348 264.828,140.264 267.349 C 142.054 268.897,143.519 270.215,143.519 270.279 C 143.519 270.473,139.757 274.769,139.587 274.769 C 139.349 274.769,121.064 259.051,121.069 258.851 C 121.078 258.536,127.947 250.710,128.968 249.852 C 131.300 247.892,133.739 247.389,136.574 248.284 M132.049 254.136 C 131.661 254.372,130.762 255.219,130.051 256.017 L 128.759 257.468 130.525 258.983 C 131.497 259.817,132.500 260.682,132.755 260.906 C 133.597 261.648,136.553 257.697,136.225 256.268 C 135.800 254.412,133.511 253.244,132.049 254.136 " stroke="none" fill="#ec1c44" fill-rule="evenodd"></path><path id="path2" d="M207.234 10.576 C 207.457 10.634,207.821 10.634,208.044 10.576 C 208.267 10.518,208.084 10.470,207.639 10.470 C 207.193 10.470,207.011 10.518,207.234 10.576 M244.314 48.900 L 243.634 49.653 244.387 48.973 C 245.088 48.339,245.245 48.148,245.066 48.148 C 245.027 48.148,244.688 48.487,244.314 48.900 M253.704 50.535 C 253.704 50.575,254.042 50.914,254.456 51.288 L 255.208 51.968 254.528 51.215 C 253.895 50.514,253.704 50.357,253.704 50.535 M225.564 68.345 L 224.884 69.097 225.637 68.417 C 226.050 68.043,226.389 67.705,226.389 67.665 C 226.389 67.486,226.198 67.644,225.564 68.345 M219.546 74.595 L 218.866 75.347 219.618 74.667 C 220.032 74.293,220.370 73.955,220.370 73.915 C 220.370 73.736,220.179 73.894,219.546 74.595 M251.259 78.067 L 250.579 78.819 251.331 78.140 C 252.032 77.506,252.190 77.315,252.011 77.315 C 251.971 77.315,251.633 77.653,251.259 78.067 M200.796 94.039 L 200.116 94.792 200.868 94.112 C 201.282 93.738,201.620 93.399,201.620 93.359 C 201.620 93.181,201.429 93.338,200.796 94.039 M194.546 100.521 L 193.866 101.273 194.618 100.593 C 195.032 100.219,195.370 99.881,195.370 99.841 C 195.370 99.662,195.179 99.820,194.546 100.521 M188.296 107.002 L 187.616 107.755 188.368 107.075 C 188.782 106.701,189.120 106.362,189.120 106.322 C 189.120 106.144,188.929 106.301,188.296 107.002 M220.009 110.475 L 219.329 111.227 220.081 110.547 C 220.495 110.173,220.833 109.834,220.833 109.795 C 220.833 109.616,220.642 109.773,220.009 110.475 M213.759 116.956 L 213.079 117.708 213.831 117.028 C 214.245 116.655,214.583 116.316,214.583 116.276 C 214.583 116.097,214.392 116.255,213.759 116.956 M175.796 119.965 L 175.116 120.718 175.868 120.038 C 176.569 119.404,176.727 119.213,176.548 119.213 C 176.508 119.213,176.170 119.552,175.796 119.965 M195.240 136.169 L 194.560 136.921 195.313 136.241 C 195.726 135.867,196.065 135.529,196.065 135.489 C 196.065 135.310,195.874 135.468,195.240 136.169 M145.240 188.021 L 144.560 188.773 145.313 188.093 C 145.726 187.719,146.065 187.381,146.065 187.341 C 146.065 187.162,145.874 187.320,145.240 188.021 M204.962 222.049 L 204.282 222.801 205.035 222.121 C 205.736 221.487,205.893 221.296,205.715 221.296 C 205.675 221.296,205.336 221.635,204.962 222.049 M223.481 239.178 L 222.801 239.931 223.553 239.251 C 223.967 238.877,224.306 238.538,224.306 238.498 C 224.306 238.320,224.115 238.477,223.481 239.178 M164.222 264.410 L 163.542 265.162 164.294 264.482 C 164.708 264.108,165.046 263.770,165.046 263.730 C 165.046 263.551,164.855 263.708,164.222 264.410 M176.953 287.558 L 176.273 288.310 177.025 287.630 C 177.439 287.256,177.778 286.918,177.778 286.878 C 177.778 286.699,177.587 286.857,176.953 287.558 M147.917 291.276 C 147.917 291.316,148.255 291.655,148.669 292.028 L 149.421 292.708 148.741 291.956 C 148.108 291.255,147.917 291.097,147.917 291.276 M196.817 359.650 C 197.040 359.709,197.405 359.709,197.627 359.650 C 197.850 359.592,197.668 359.544,197.222 359.544 C 196.777 359.544,196.594 359.592,196.817 359.650 M207.234 359.650 C 207.457 359.709,207.821 359.709,208.044 359.650 C 208.267 359.592,208.084 359.544,207.639 359.544 C 207.193 359.544,207.011 359.592,207.234 359.650 " stroke="none" fill="#f46e88" fill-rule="evenodd"></path><path id="path3" d="M198.209 10.583 C 198.561 10.636,199.082 10.635,199.367 10.580 C 199.651 10.525,199.363 10.481,198.727 10.483 C 198.090 10.485,197.857 10.530,198.209 10.583 M205.498 10.580 C 205.784 10.635,206.253 10.635,206.539 10.580 C 206.826 10.525,206.591 10.480,206.019 10.480 C 205.446 10.480,205.211 10.525,205.498 10.580 M242.697 50.521 L 241.782 51.505 242.766 50.590 C 243.307 50.086,243.750 49.644,243.750 49.606 C 243.750 49.431,243.548 49.606,242.697 50.521 M259.144 55.787 C 259.641 56.296,260.100 56.713,260.163 56.713 C 260.227 56.713,259.872 56.296,259.375 55.787 C 258.878 55.278,258.419 54.861,258.355 54.861 C 258.291 54.861,258.646 55.278,259.144 55.787 M236.450 57.002 L 235.301 58.218 236.516 57.069 C 237.645 56.001,237.838 55.787,237.665 55.787 C 237.628 55.787,237.081 56.334,236.450 57.002 M230.200 63.484 L 229.051 64.699 230.266 63.550 C 231.395 62.483,231.588 62.269,231.415 62.269 C 231.378 62.269,230.831 62.815,230.200 63.484 M259.135 69.965 L 257.986 71.181 259.201 70.032 C 259.870 69.400,260.417 68.853,260.417 68.817 C 260.417 68.644,260.202 68.836,259.135 69.965 M223.947 69.965 L 223.032 70.949 224.016 70.034 C 224.931 69.183,225.106 68.981,224.931 68.981 C 224.893 68.981,224.451 69.424,223.947 69.965 M217.700 76.447 L 216.551 77.662 217.766 76.513 C 218.895 75.446,219.088 75.231,218.915 75.231 C 218.878 75.231,218.331 75.778,217.700 76.447 M253.009 76.273 C 252.447 76.846,252.039 77.315,252.103 77.315 C 252.166 77.315,252.678 76.846,253.241 76.273 C 253.803 75.700,254.211 75.231,254.147 75.231 C 254.084 75.231,253.572 75.700,253.009 76.273 M211.679 82.697 L 210.764 83.681 211.748 82.766 C 212.289 82.262,212.731 81.820,212.731 81.782 C 212.731 81.607,212.530 81.782,211.679 82.697 M246.635 82.928 L 245.486 84.144 246.701 82.995 C 247.370 82.363,247.917 81.816,247.917 81.780 C 247.917 81.607,247.702 81.799,246.635 82.928 M205.324 89.236 C 204.762 89.809,204.354 90.278,204.417 90.278 C 204.481 90.278,204.993 89.809,205.556 89.236 C 206.118 88.663,206.526 88.194,206.462 88.194 C 206.398 88.194,205.886 88.663,205.324 89.236 M240.385 89.410 L 239.236 90.625 240.451 89.476 C 241.120 88.845,241.667 88.298,241.667 88.261 C 241.667 88.088,241.452 88.280,240.385 89.410 M234.366 95.660 L 233.218 96.875 234.433 95.726 C 235.562 94.659,235.754 94.444,235.582 94.444 C 235.545 94.444,234.998 94.991,234.366 95.660 M199.074 95.718 C 198.512 96.291,198.104 96.759,198.167 96.759 C 198.231 96.759,198.743 96.291,199.306 95.718 C 199.868 95.145,200.276 94.676,200.212 94.676 C 200.148 94.676,199.636 95.145,199.074 95.718 M192.824 102.199 C 192.262 102.772,191.854 103.241,191.917 103.241 C 191.981 103.241,192.493 102.772,193.056 102.199 C 193.618 101.626,194.026 101.157,193.962 101.157 C 193.898 101.157,193.386 101.626,192.824 102.199 M228.009 102.199 C 227.447 102.772,227.039 103.241,227.103 103.241 C 227.166 103.241,227.678 102.772,228.241 102.199 C 228.803 101.626,229.211 101.157,229.147 101.157 C 229.084 101.157,228.572 101.626,228.009 102.199 M186.574 108.681 C 186.012 109.253,185.604 109.722,185.667 109.722 C 185.731 109.722,186.243 109.253,186.806 108.681 C 187.368 108.108,187.776 107.639,187.712 107.639 C 187.648 107.639,187.136 108.108,186.574 108.681 M221.759 108.681 C 221.197 109.253,220.789 109.722,220.853 109.722 C 220.916 109.722,221.428 109.253,221.991 108.681 C 222.553 108.108,222.961 107.639,222.897 107.639 C 222.834 107.639,222.322 108.108,221.759 108.681 M180.324 115.162 C 179.762 115.735,179.354 116.204,179.417 116.204 C 179.481 116.204,179.993 115.735,180.556 115.162 C 181.118 114.589,181.526 114.120,181.462 114.120 C 181.398 114.120,180.886 114.589,180.324 115.162 M215.509 115.162 C 214.947 115.735,214.539 116.204,214.603 116.204 C 214.666 116.204,215.178 115.735,215.741 115.162 C 216.303 114.589,216.711 114.120,216.647 114.120 C 216.584 114.120,216.072 114.589,215.509 115.162 M174.179 121.586 L 173.264 122.569 174.248 121.654 C 175.163 120.803,175.338 120.602,175.163 120.602 C 175.125 120.602,174.682 121.045,174.179 121.586 M209.259 121.644 C 208.697 122.216,208.289 122.685,208.353 122.685 C 208.416 122.685,208.928 122.216,209.491 121.644 C 210.053 121.071,210.461 120.602,210.397 120.602 C 210.334 120.602,209.822 121.071,209.259 121.644 M167.931 128.067 L 166.782 129.282 167.998 128.134 C 169.127 127.066,169.319 126.852,169.146 126.852 C 169.110 126.852,168.563 127.399,167.931 128.067 M203.116 128.067 L 201.968 129.282 203.183 128.134 C 203.851 127.502,204.398 126.955,204.398 126.918 C 204.398 126.746,204.184 126.938,203.116 128.067 M196.864 134.549 L 195.949 135.532 196.933 134.617 C 197.474 134.114,197.917 133.671,197.917 133.634 C 197.917 133.458,197.715 133.634,196.864 134.549 M190.509 141.088 C 189.947 141.661,189.539 142.130,189.603 142.130 C 189.666 142.130,190.178 141.661,190.741 141.088 C 191.303 140.515,191.711 140.046,191.647 140.046 C 191.584 140.046,191.072 140.515,190.509 141.088 M143.056 153.819 C 142.493 154.392,142.085 154.861,142.149 154.861 C 142.213 154.861,142.725 154.392,143.287 153.819 C 143.849 153.247,144.257 152.778,144.194 152.778 C 144.130 152.778,143.618 153.247,143.056 153.819 M136.806 160.301 C 136.243 160.874,135.835 161.343,135.899 161.343 C 135.963 161.343,136.475 160.874,137.037 160.301 C 137.599 159.728,138.007 159.259,137.944 159.259 C 137.880 159.259,137.368 159.728,136.806 160.301 M261.562 163.137 L 260.764 164.005 261.632 163.207 C 262.440 162.464,262.606 162.269,262.430 162.269 C 262.391 162.269,262.000 162.659,261.562 163.137 M130.663 166.725 L 129.514 167.940 130.729 166.791 C 131.398 166.159,131.944 165.612,131.944 165.576 C 131.944 165.403,131.730 165.595,130.663 166.725 M165.741 166.782 C 165.178 167.355,164.771 167.824,164.834 167.824 C 164.898 167.824,165.410 167.355,165.972 166.782 C 166.534 166.209,166.942 165.741,166.879 165.741 C 166.815 165.741,166.303 166.209,165.741 166.782 M277.662 167.361 C 278.159 167.870,278.618 168.287,278.682 168.287 C 278.746 168.287,278.391 167.870,277.894 167.361 C 277.396 166.852,276.937 166.435,276.874 166.435 C 276.810 166.435,277.165 166.852,277.662 167.361 M255.556 169.329 C 254.993 169.902,254.585 170.370,254.649 170.370 C 254.713 170.370,255.225 169.902,255.787 169.329 C 256.349 168.756,256.757 168.287,256.694 168.287 C 256.630 168.287,256.118 168.756,255.556 169.329 M159.598 173.206 L 158.449 174.421 159.664 173.273 C 160.333 172.641,160.880 172.094,160.880 172.057 C 160.880 171.885,160.665 172.077,159.598 173.206 M249.769 175.347 C 249.206 175.920,248.798 176.389,248.862 176.389 C 248.926 176.389,249.438 175.920,250.000 175.347 C 250.562 174.774,250.970 174.306,250.907 174.306 C 250.843 174.306,250.331 174.774,249.769 175.347 M153.114 179.919 L 152.199 180.903 153.183 179.988 C 154.098 179.137,154.273 178.935,154.098 178.935 C 154.060 178.935,153.617 179.378,153.114 179.919 M130.440 181.019 C 131.067 181.655,131.632 182.176,131.696 182.176 C 131.759 182.176,131.298 181.655,130.671 181.019 C 130.044 180.382,129.479 179.861,129.416 179.861 C 129.352 179.861,129.813 180.382,130.440 181.019 M27.847 181.481 C 27.847 182.182,27.891 182.468,27.944 182.118 C 27.997 181.768,27.997 181.195,27.944 180.845 C 27.891 180.495,27.847 180.781,27.847 181.481 M376.921 181.481 C 376.921 182.182,376.965 182.468,377.018 182.118 C 377.071 181.768,377.071 181.195,377.018 180.845 C 376.965 180.495,376.921 180.781,376.921 181.481 M277.315 183.218 C 276.753 183.791,276.345 184.259,276.408 184.259 C 276.472 184.259,276.984 183.791,277.546 183.218 C 278.109 182.645,278.517 182.176,278.453 182.176 C 278.389 182.176,277.877 182.645,277.315 183.218 M146.991 186.227 C 146.428 186.800,146.021 187.269,146.084 187.269 C 146.148 187.269,146.660 186.800,147.222 186.227 C 147.784 185.654,148.192 185.185,148.129 185.185 C 148.065 185.185,147.553 185.654,146.991 186.227 M27.847 188.657 C 27.847 189.358,27.891 189.644,27.944 189.294 C 27.997 188.944,27.997 188.371,27.944 188.021 C 27.891 187.671,27.847 187.957,27.847 188.657 M376.921 188.657 C 376.921 189.358,376.965 189.644,377.018 189.294 C 377.071 188.944,377.071 188.371,377.018 188.021 C 376.965 187.671,376.921 187.957,376.921 188.657 M271.528 189.236 C 270.966 189.809,270.558 190.278,270.621 190.278 C 270.685 190.278,271.197 189.809,271.759 189.236 C 272.322 188.663,272.729 188.194,272.666 188.194 C 272.602 188.194,272.090 188.663,271.528 189.236 M226.494 199.595 L 225.579 200.579 226.563 199.664 C 227.477 198.813,227.653 198.611,227.478 198.611 C 227.440 198.611,226.997 199.054,226.494 199.595 M220.833 205.440 C 220.271 206.013,219.863 206.481,219.927 206.481 C 219.990 206.481,220.503 206.013,221.065 205.440 C 221.627 204.867,222.035 204.398,221.971 204.398 C 221.908 204.398,221.396 204.867,220.833 205.440 M214.920 211.632 L 214.005 212.616 214.988 211.701 C 215.903 210.850,216.079 210.648,215.903 210.648 C 215.866 210.648,215.423 211.091,214.920 211.632 M248.253 213.484 L 247.338 214.468 248.322 213.553 C 248.863 213.049,249.306 212.607,249.306 212.569 C 249.306 212.394,249.104 212.569,248.253 213.484 M209.247 217.535 L 208.449 218.403 209.317 217.605 C 210.125 216.863,210.292 216.667,210.115 216.667 C 210.076 216.667,209.686 217.057,209.247 217.535 M242.349 219.618 L 241.551 220.486 242.419 219.688 C 243.227 218.946,243.393 218.750,243.217 218.750 C 243.178 218.750,242.787 219.141,242.349 219.618 M203.346 223.669 L 202.431 224.653 203.414 223.738 C 204.329 222.887,204.505 222.685,204.329 222.685 C 204.292 222.685,203.849 223.128,203.346 223.669 M236.574 225.579 C 236.012 226.152,235.604 226.620,235.667 226.620 C 235.731 226.620,236.243 226.152,236.806 225.579 C 237.368 225.006,237.776 224.537,237.712 224.537 C 237.648 224.537,237.136 225.006,236.574 225.579 M197.559 229.688 L 196.644 230.671 197.627 229.756 C 198.542 228.905,198.717 228.704,198.542 228.704 C 198.505 228.704,198.062 229.146,197.559 229.688 M230.787 231.597 C 230.225 232.170,229.817 232.639,229.880 232.639 C 229.944 232.639,230.456 232.170,231.019 231.597 C 231.581 231.024,231.989 230.556,231.925 230.556 C 231.861 230.556,231.349 231.024,230.787 231.597 M191.667 235.764 C 191.104 236.337,190.696 236.806,190.760 236.806 C 190.824 236.806,191.336 236.337,191.898 235.764 C 192.460 235.191,192.868 234.722,192.805 234.722 C 192.741 234.722,192.229 235.191,191.667 235.764 M224.988 237.674 L 224.190 238.542 225.058 237.744 C 225.866 237.001,226.032 236.806,225.856 236.806 C 225.817 236.806,225.426 237.196,224.988 237.674 M185.880 241.782 C 185.317 242.355,184.909 242.824,184.973 242.824 C 185.037 242.824,185.549 242.355,186.111 241.782 C 186.673 241.209,187.081 240.741,187.018 240.741 C 186.954 240.741,186.442 241.209,185.880 241.782 M219.086 243.808 L 218.171 244.792 219.155 243.877 C 220.070 243.026,220.245 242.824,220.070 242.824 C 220.032 242.824,219.590 243.267,219.086 243.808 M180.093 247.801 C 179.530 248.374,179.122 248.843,179.186 248.843 C 179.250 248.843,179.762 248.374,180.324 247.801 C 180.886 247.228,181.294 246.759,181.231 246.759 C 181.167 246.759,180.655 247.228,180.093 247.801 M213.426 249.653 C 212.864 250.226,212.456 250.694,212.519 250.694 C 212.583 250.694,213.095 250.226,213.657 249.653 C 214.220 249.080,214.628 248.611,214.564 248.611 C 214.500 248.611,213.988 249.080,213.426 249.653 M174.306 253.819 C 173.743 254.392,173.335 254.861,173.399 254.861 C 173.463 254.861,173.975 254.392,174.537 253.819 C 175.099 253.247,175.507 252.778,175.444 252.778 C 175.380 252.778,174.868 253.247,174.306 253.819 M207.639 255.671 C 207.077 256.244,206.669 256.713,206.732 256.713 C 206.796 256.713,207.308 256.244,207.870 255.671 C 208.433 255.098,208.841 254.630,208.777 254.630 C 208.713 254.630,208.201 255.098,207.639 255.671 M168.623 259.780 L 167.708 260.764 168.692 259.849 C 169.233 259.346,169.676 258.903,169.676 258.865 C 169.676 258.690,169.474 258.865,168.623 259.780 M201.852 261.690 C 201.290 262.263,200.882 262.731,200.945 262.731 C 201.009 262.731,201.521 262.263,202.083 261.690 C 202.646 261.117,203.054 260.648,202.990 260.648 C 202.926 260.648,202.414 261.117,201.852 261.690 M162.605 266.030 L 161.690 267.014 162.674 266.099 C 163.589 265.248,163.764 265.046,163.589 265.046 C 163.551 265.046,163.108 265.489,162.605 266.030 M196.065 267.708 C 195.503 268.281,195.095 268.750,195.158 268.750 C 195.222 268.750,195.734 268.281,196.296 267.708 C 196.859 267.135,197.267 266.667,197.203 266.667 C 197.139 266.667,196.627 267.135,196.065 267.708 M156.818 272.049 L 155.903 273.032 156.887 272.117 C 157.801 271.266,157.977 271.065,157.802 271.065 C 157.764 271.065,157.321 271.508,156.818 272.049 M189.920 274.132 L 189.005 275.116 189.988 274.201 C 190.903 273.350,191.079 273.148,190.903 273.148 C 190.866 273.148,190.423 273.591,189.920 274.132 M151.031 278.067 L 150.116 279.051 151.100 278.136 C 152.014 277.285,152.190 277.083,152.015 277.083 C 151.977 277.083,151.534 277.526,151.031 278.067 M184.364 279.919 L 183.449 280.903 184.433 279.988 C 185.348 279.137,185.523 278.935,185.348 278.935 C 185.310 278.935,184.867 279.378,184.364 279.919 M178.577 285.938 L 177.662 286.921 178.646 286.006 C 179.561 285.155,179.736 284.954,179.561 284.954 C 179.523 284.954,179.080 285.396,178.577 285.938 M172.559 292.188 L 171.644 293.171 172.627 292.256 C 173.542 291.405,173.717 291.204,173.542 291.204 C 173.505 291.204,173.062 291.646,172.559 292.188 M150.222 293.576 C 150.789 294.181,151.284 294.676,151.321 294.676 C 151.495 294.676,151.311 294.468,150.289 293.509 L 149.190 292.477 150.222 293.576 M166.898 298.032 C 166.336 298.605,165.928 299.074,165.992 299.074 C 166.055 299.074,166.567 298.605,167.130 298.032 C 167.692 297.459,168.100 296.991,168.036 296.991 C 167.973 296.991,167.460 297.459,166.898 298.032 M74.306 303.776 C 74.306 303.816,74.644 304.155,75.058 304.528 L 75.810 305.208 75.130 304.456 C 74.497 303.755,74.306 303.597,74.306 303.776 M329.731 304.456 L 329.051 305.208 329.803 304.528 C 330.505 303.895,330.662 303.704,330.483 303.704 C 330.443 303.704,330.105 304.042,329.731 304.456 M321.629 312.558 L 320.949 313.310 321.701 312.630 C 322.403 311.997,322.560 311.806,322.381 311.806 C 322.341 311.806,322.003 312.144,321.629 312.558 M198.322 359.654 C 198.608 359.709,199.077 359.709,199.363 359.654 C 199.650 359.599,199.416 359.554,198.843 359.554 C 198.270 359.554,198.035 359.599,198.322 359.654 M205.498 359.654 C 205.784 359.709,206.253 359.709,206.539 359.654 C 206.826 359.599,206.591 359.554,206.019 359.554 C 205.446 359.554,205.211 359.599,205.498 359.654 " stroke="none" fill="#f24466" fill-rule="evenodd"></path><path id="path4" d="M195.081 10.580 C 195.367 10.635,195.836 10.635,196.123 10.580 C 196.409 10.525,196.175 10.480,195.602 10.480 C 195.029 10.480,194.795 10.525,195.081 10.580 M208.738 10.580 C 209.025 10.635,209.494 10.635,209.780 10.580 C 210.067 10.525,209.832 10.480,209.259 10.480 C 208.686 10.480,208.452 10.525,208.738 10.580 M256.134 53.009 C 256.761 53.646,257.326 54.167,257.390 54.167 C 257.454 54.167,256.993 53.646,256.366 53.009 C 255.739 52.373,255.174 51.852,255.110 51.852 C 255.046 51.852,255.507 52.373,256.134 53.009 M239.922 53.530 L 238.773 54.745 239.988 53.597 C 241.118 52.529,241.310 52.315,241.137 52.315 C 241.101 52.315,240.554 52.862,239.922 53.530 M325.810 61.574 C 327.462 63.229,328.865 64.583,328.929 64.583 C 328.992 64.583,327.693 63.229,326.042 61.574 C 324.390 59.919,322.987 58.565,322.923 58.565 C 322.860 58.565,324.159 59.919,325.810 61.574 M78.700 61.748 L 75.810 64.699 78.762 61.809 C 81.503 59.124,81.818 58.796,81.652 58.796 C 81.618 58.796,80.290 60.124,78.700 61.748 M233.672 60.012 L 232.523 61.227 233.738 60.078 C 234.868 59.011,235.060 58.796,234.887 58.796 C 234.851 58.796,234.304 59.343,233.672 60.012 M227.422 66.493 L 226.273 67.708 227.488 66.560 C 228.618 65.492,228.810 65.278,228.637 65.278 C 228.601 65.278,228.054 65.825,227.422 66.493 M261.806 67.014 C 261.243 67.587,260.835 68.056,260.899 68.056 C 260.963 68.056,261.475 67.587,262.037 67.014 C 262.599 66.441,263.007 65.972,262.944 65.972 C 262.880 65.972,262.368 66.441,261.806 67.014 M221.296 72.801 C 220.734 73.374,220.326 73.843,220.390 73.843 C 220.453 73.843,220.966 73.374,221.528 72.801 C 222.090 72.228,222.498 71.759,222.434 71.759 C 222.371 71.759,221.859 72.228,221.296 72.801 M255.663 73.438 L 254.514 74.653 255.729 73.504 C 256.398 72.872,256.944 72.325,256.944 72.289 C 256.944 72.116,256.730 72.308,255.663 73.438 M214.922 79.456 L 213.773 80.671 214.988 79.523 C 216.118 78.455,216.310 78.241,216.137 78.241 C 216.101 78.241,215.554 78.788,214.922 79.456 M249.413 79.919 L 248.264 81.134 249.479 79.986 C 250.148 79.354,250.694 78.807,250.694 78.770 C 250.694 78.598,250.480 78.790,249.413 79.919 M208.672 85.938 L 207.523 87.153 208.738 86.004 C 209.868 84.937,210.060 84.722,209.887 84.722 C 209.851 84.722,209.304 85.269,208.672 85.938 M243.163 86.400 L 242.014 87.616 243.229 86.467 C 243.898 85.835,244.444 85.288,244.444 85.252 C 244.444 85.079,244.230 85.271,243.163 86.400 M202.546 92.245 C 201.984 92.818,201.576 93.287,201.640 93.287 C 201.703 93.287,202.216 92.818,202.778 92.245 C 203.340 91.672,203.748 91.204,203.684 91.204 C 203.621 91.204,203.109 91.672,202.546 92.245 M237.037 92.708 C 236.475 93.281,236.067 93.750,236.130 93.750 C 236.194 93.750,236.706 93.281,237.269 92.708 C 237.831 92.135,238.239 91.667,238.175 91.667 C 238.111 91.667,237.599 92.135,237.037 92.708 M196.296 98.727 C 195.734 99.300,195.326 99.769,195.390 99.769 C 195.453 99.769,195.966 99.300,196.528 98.727 C 197.090 98.154,197.498 97.685,197.434 97.685 C 197.371 97.685,196.859 98.154,196.296 98.727 M230.779 99.248 L 229.514 100.579 230.845 99.313 C 231.577 98.618,232.176 98.019,232.176 97.982 C 232.176 97.811,231.955 98.011,230.779 99.248 M190.153 105.150 L 189.005 106.366 190.220 105.217 C 191.349 104.150,191.541 103.935,191.369 103.935 C 191.332 103.935,190.785 104.482,190.153 105.150 M224.644 105.613 L 223.495 106.829 224.711 105.680 C 225.840 104.613,226.032 104.398,225.859 104.398 C 225.823 104.398,225.276 104.945,224.644 105.613 M183.672 111.863 L 182.523 113.079 183.738 111.930 C 184.868 110.863,185.060 110.648,184.887 110.648 C 184.851 110.648,184.304 111.195,183.672 111.863 M218.287 112.153 C 217.725 112.726,217.317 113.194,217.380 113.194 C 217.444 113.194,217.956 112.726,218.519 112.153 C 219.081 111.580,219.489 111.111,219.425 111.111 C 219.361 111.111,218.849 111.580,218.287 112.153 M177.653 118.113 L 176.505 119.329 177.720 118.180 C 178.849 117.113,179.041 116.898,178.869 116.898 C 178.832 116.898,178.285 117.445,177.653 118.113 M212.037 118.634 C 211.475 119.207,211.067 119.676,211.130 119.676 C 211.194 119.676,211.706 119.207,212.269 118.634 C 212.831 118.061,213.239 117.593,213.175 117.593 C 213.111 117.593,212.599 118.061,212.037 118.634 M171.403 124.595 L 170.255 125.810 171.470 124.661 C 172.599 123.594,172.791 123.380,172.619 123.380 C 172.582 123.380,172.035 123.927,171.403 124.595 M205.894 125.058 L 204.745 126.273 205.961 125.124 C 207.090 124.057,207.282 123.843,207.109 123.843 C 207.073 123.843,206.526 124.389,205.894 125.058 M165.153 131.076 L 164.005 132.292 165.220 131.143 C 166.349 130.076,166.541 129.861,166.369 129.861 C 166.332 129.861,165.785 130.408,165.153 131.076 M199.644 131.539 L 198.495 132.755 199.711 131.606 C 200.379 130.974,200.926 130.427,200.926 130.391 C 200.926 130.218,200.711 130.410,199.644 131.539 M193.394 138.021 L 192.245 139.236 193.461 138.087 C 194.590 137.020,194.782 136.806,194.609 136.806 C 194.573 136.806,194.026 137.352,193.394 138.021 M187.373 144.271 L 186.458 145.255 187.442 144.340 C 188.357 143.489,188.532 143.287,188.357 143.287 C 188.319 143.287,187.877 143.730,187.373 144.271 M140.270 156.887 L 139.005 158.218 140.336 156.952 C 141.572 155.777,141.773 155.556,141.601 155.556 C 141.565 155.556,140.966 156.155,140.270 156.887 M133.903 163.484 L 132.755 164.699 133.970 163.550 C 134.638 162.919,135.185 162.372,135.185 162.335 C 135.185 162.162,134.971 162.355,133.903 163.484 M274.884 164.815 C 275.382 165.324,275.840 165.741,275.904 165.741 C 275.968 165.741,275.613 165.324,275.116 164.815 C 274.618 164.306,274.160 163.889,274.096 163.889 C 274.032 163.889,274.387 164.306,274.884 164.815 M258.903 166.030 L 257.755 167.245 258.970 166.097 C 259.638 165.465,260.185 164.918,260.185 164.881 C 260.185 164.709,259.971 164.901,258.903 166.030 M127.778 169.792 C 127.216 170.365,126.808 170.833,126.871 170.833 C 126.935 170.833,127.447 170.365,128.009 169.792 C 128.572 169.219,128.979 168.750,128.916 168.750 C 128.852 168.750,128.340 169.219,127.778 169.792 M162.376 170.197 L 161.227 171.412 162.442 170.263 C 163.111 169.632,163.657 169.085,163.657 169.048 C 163.657 168.875,163.443 169.068,162.376 170.197 M253.009 172.106 C 252.447 172.679,252.039 173.148,252.103 173.148 C 252.166 173.148,252.678 172.679,253.241 172.106 C 253.803 171.534,254.211 171.065,254.147 171.065 C 254.084 171.065,253.572 171.534,253.009 172.106 M156.126 176.678 L 154.977 177.894 156.192 176.745 C 156.861 176.113,157.407 175.566,157.407 175.530 C 157.407 175.357,157.193 175.549,156.126 176.678 M247.327 178.067 L 246.412 179.051 247.396 178.136 C 248.311 177.285,248.486 177.083,248.311 177.083 C 248.273 177.083,247.830 177.526,247.327 178.067 M27.841 178.241 C 27.841 178.814,27.886 179.048,27.941 178.762 C 27.996 178.475,27.996 178.006,27.941 177.720 C 27.886 177.433,27.841 177.668,27.841 178.241 M376.915 178.241 C 376.915 178.814,376.960 179.048,377.015 178.762 C 377.070 178.475,377.070 178.006,377.015 177.720 C 376.960 177.433,376.915 177.668,376.915 178.241 M279.968 180.382 L 278.819 181.597 280.035 180.449 C 280.703 179.817,281.250 179.270,281.250 179.233 C 281.250 179.061,281.036 179.253,279.968 180.382 M149.876 183.160 L 148.727 184.375 149.942 183.226 C 150.611 182.595,151.157 182.048,151.157 182.011 C 151.157 181.838,150.943 182.030,149.876 183.160 M133.449 183.796 C 134.076 184.433,134.641 184.954,134.705 184.954 C 134.768 184.954,134.308 184.433,133.681 183.796 C 133.054 183.160,132.488 182.639,132.425 182.639 C 132.361 182.639,132.822 183.160,133.449 183.796 M274.074 186.458 C 273.512 187.031,273.104 187.500,273.167 187.500 C 273.231 187.500,273.743 187.031,274.306 186.458 C 274.868 185.885,275.276 185.417,275.212 185.417 C 275.148 185.417,274.636 185.885,274.074 186.458 M27.841 191.898 C 27.841 192.471,27.886 192.705,27.941 192.419 C 27.996 192.133,27.996 191.664,27.941 191.377 C 27.886 191.091,27.841 191.325,27.841 191.898 M376.915 191.898 C 376.915 192.471,376.960 192.705,377.015 192.419 C 377.070 192.133,377.070 191.664,377.015 191.377 C 376.960 191.091,376.915 191.325,376.915 191.898 M224.074 202.199 C 223.512 202.772,223.104 203.241,223.167 203.241 C 223.231 203.241,223.743 202.772,224.306 202.199 C 224.868 201.626,225.276 201.157,225.212 201.157 C 225.148 201.157,224.636 201.626,224.074 202.199 M218.163 208.391 L 217.014 209.606 218.229 208.458 C 219.358 207.390,219.551 207.176,219.378 207.176 C 219.341 207.176,218.794 207.723,218.163 208.391 M250.333 211.169 L 249.653 211.921 250.405 211.241 C 251.106 210.608,251.264 210.417,251.085 210.417 C 251.045 210.417,250.707 210.755,250.333 211.169 M212.376 214.410 L 211.227 215.625 212.442 214.476 C 213.571 213.409,213.764 213.194,213.591 213.194 C 213.554 213.194,213.007 213.741,212.376 214.410 M245.139 216.551 C 244.577 217.124,244.169 217.593,244.232 217.593 C 244.296 217.593,244.808 217.124,245.370 216.551 C 245.933 215.978,246.341 215.509,246.277 215.509 C 246.213 215.509,245.701 215.978,245.139 216.551 M206.586 220.428 L 205.671 221.412 206.655 220.497 C 207.570 219.646,207.745 219.444,207.570 219.444 C 207.532 219.444,207.090 219.887,206.586 220.428 M239.352 222.569 C 238.790 223.142,238.382 223.611,238.445 223.611 C 238.509 223.611,239.021 223.142,239.583 222.569 C 240.146 221.997,240.554 221.528,240.490 221.528 C 240.426 221.528,239.914 221.997,239.352 222.569 M182.234 222.569 C 182.237 223.079,182.284 223.260,182.340 222.972 C 182.395 222.684,182.393 222.267,182.335 222.046 C 182.277 221.825,182.232 222.060,182.234 222.569 M200.694 226.505 C 200.132 227.078,199.724 227.546,199.788 227.546 C 199.852 227.546,200.364 227.078,200.926 226.505 C 201.488 225.932,201.896 225.463,201.833 225.463 C 201.769 225.463,201.257 225.932,200.694 226.505 M233.440 228.762 L 232.292 229.977 233.507 228.828 C 234.175 228.196,234.722 227.649,234.722 227.613 C 234.722 227.440,234.508 227.632,233.440 228.762 M194.907 232.523 C 194.345 233.096,193.937 233.565,194.001 233.565 C 194.064 233.565,194.577 233.096,195.139 232.523 C 195.701 231.950,196.109 231.481,196.045 231.481 C 195.982 231.481,195.470 231.950,194.907 232.523 M187.951 232.581 L 187.153 233.449 188.021 232.651 C 188.498 232.213,188.889 231.822,188.889 231.783 C 188.889 231.607,188.693 231.773,187.951 232.581 M227.546 234.838 C 226.984 235.411,226.576 235.880,226.640 235.880 C 226.703 235.880,227.216 235.411,227.778 234.838 C 228.340 234.265,228.748 233.796,228.684 233.796 C 228.621 233.796,228.109 234.265,227.546 234.838 M189.120 238.542 C 188.558 239.115,188.150 239.583,188.214 239.583 C 188.277 239.583,188.790 239.115,189.352 238.542 C 189.914 237.969,190.322 237.500,190.258 237.500 C 190.195 237.500,189.683 237.969,189.120 238.542 M221.759 240.856 C 221.197 241.429,220.789 241.898,220.853 241.898 C 220.916 241.898,221.428 241.429,221.991 240.856 C 222.553 240.284,222.961 239.815,222.897 239.815 C 222.834 239.815,222.322 240.284,221.759 240.856 M183.333 244.560 C 182.771 245.133,182.363 245.602,182.427 245.602 C 182.490 245.602,183.003 245.133,183.565 244.560 C 184.127 243.987,184.535 243.519,184.471 243.519 C 184.408 243.519,183.896 243.987,183.333 244.560 M215.972 246.875 C 215.410 247.448,215.002 247.917,215.066 247.917 C 215.129 247.917,215.641 247.448,216.204 246.875 C 216.766 246.302,217.174 245.833,217.110 245.833 C 217.047 245.833,216.534 246.302,215.972 246.875 M177.546 250.579 C 176.984 251.152,176.576 251.620,176.640 251.620 C 176.703 251.620,177.216 251.152,177.778 250.579 C 178.340 250.006,178.748 249.537,178.684 249.537 C 178.621 249.537,178.109 250.006,177.546 250.579 M210.185 252.894 C 209.623 253.466,209.215 253.935,209.279 253.935 C 209.342 253.935,209.854 253.466,210.417 252.894 C 210.979 252.321,211.387 251.852,211.323 251.852 C 211.260 251.852,210.747 252.321,210.185 252.894 M171.635 256.771 L 170.486 257.986 171.701 256.837 C 172.831 255.770,173.023 255.556,172.850 255.556 C 172.813 255.556,172.267 256.102,171.635 256.771 M204.398 258.912 C 203.836 259.485,203.428 259.954,203.492 259.954 C 203.555 259.954,204.067 259.485,204.630 258.912 C 205.192 258.339,205.600 257.870,205.536 257.870 C 205.473 257.870,204.960 258.339,204.398 258.912 M165.972 262.616 C 165.410 263.189,165.002 263.657,165.066 263.657 C 165.129 263.657,165.641 263.189,166.204 262.616 C 166.766 262.043,167.174 261.574,167.110 261.574 C 167.047 261.574,166.534 262.043,165.972 262.616 M198.611 264.931 C 198.049 265.503,197.641 265.972,197.705 265.972 C 197.768 265.972,198.280 265.503,198.843 264.931 C 199.405 264.358,199.813 263.889,199.749 263.889 C 199.686 263.889,199.173 264.358,198.611 264.931 M160.061 268.808 L 158.912 270.023 160.127 268.874 C 161.257 267.807,161.449 267.593,161.276 267.593 C 161.239 267.593,160.693 268.139,160.061 268.808 M192.700 271.123 L 191.551 272.338 192.766 271.189 C 193.895 270.122,194.088 269.907,193.915 269.907 C 193.878 269.907,193.331 270.454,192.700 271.123 M154.274 274.826 L 153.125 276.042 154.340 274.893 C 155.470 273.826,155.662 273.611,155.489 273.611 C 155.452 273.611,154.905 274.158,154.274 274.826 M187.037 276.968 C 186.475 277.541,186.067 278.009,186.130 278.009 C 186.194 278.009,186.706 277.541,187.269 276.968 C 187.831 276.395,188.239 275.926,188.175 275.926 C 188.111 275.926,187.599 276.395,187.037 276.968 M148.380 280.903 C 147.817 281.476,147.409 281.944,147.473 281.944 C 147.537 281.944,148.049 281.476,148.611 280.903 C 149.173 280.330,149.581 279.861,149.518 279.861 C 149.454 279.861,148.942 280.330,148.380 280.903 M181.126 283.160 L 179.977 284.375 181.192 283.226 C 182.321 282.159,182.514 281.944,182.341 281.944 C 182.304 281.944,181.757 282.491,181.126 283.160 M175.231 289.236 C 174.669 289.809,174.261 290.278,174.325 290.278 C 174.389 290.278,174.901 289.809,175.463 289.236 C 176.025 288.663,176.433 288.194,176.370 288.194 C 176.306 288.194,175.794 288.663,175.231 289.236 M169.444 295.255 C 168.882 295.828,168.474 296.296,168.538 296.296 C 168.602 296.296,169.114 295.828,169.676 295.255 C 170.238 294.682,170.646 294.213,170.583 294.213 C 170.519 294.213,170.007 294.682,169.444 295.255 M153.000 296.123 C 153.567 296.727,154.062 297.222,154.099 297.222 C 154.273 297.222,154.089 297.014,153.067 296.055 L 151.968 295.023 153.000 296.123 M78.819 308.565 C 80.471 310.220,81.874 311.574,81.938 311.574 C 82.001 311.574,80.702 310.220,79.051 308.565 C 77.400 306.910,75.996 305.556,75.933 305.556 C 75.869 305.556,77.168 306.910,78.819 308.565 M325.807 308.623 L 322.801 311.690 325.868 308.684 C 328.717 305.892,329.040 305.556,328.874 305.556 C 328.840 305.556,327.460 306.936,325.807 308.623 M195.315 359.654 C 195.603 359.710,196.020 359.708,196.241 359.650 C 196.462 359.592,196.227 359.547,195.718 359.549 C 195.208 359.552,195.027 359.599,195.315 359.654 M208.738 359.654 C 209.025 359.709,209.494 359.709,209.780 359.654 C 210.067 359.599,209.832 359.554,209.259 359.554 C 208.686 359.554,208.452 359.599,208.738 359.654 " stroke="none" fill="#f68ca4" fill-rule="evenodd"></path></g></svg>